<?xml version="1.0" encoding="UTF-8"?>
<svg width="1186px" height="709px" viewBox="0 0 1186 709" version="1.1" xmlns="http://www.w3.org/2000/svg" xmlns:xlink="http://www.w3.org/1999/xlink">
    <!-- Generator: Sketch 53 (72520) - https://sketchapp.com -->
    <title>tab-bg</title>
    <desc>Created with Sketch.</desc>
    <defs>
        <linearGradient x1="50%" y1="75.8682414%" x2="50%" y2="3.061617e-15%" id="linearGradient-1">
            <stop stop-color="#1D6FDC" stop-opacity="0" offset="0%"></stop>
            <stop stop-color="#1D6FDC" offset="100%"></stop>
        </linearGradient>
    </defs>
    <g id="Design" stroke="none" stroke-width="1" fill="none" fill-rule="evenodd" opacity="0.07">
        <g id="6.4---My-Profile---Property" transform="translate(-254.000000, -305.000000)" fill="url(#linearGradient-1)">
            <path d="M1432.59014,729.928068 L1432.59014,723.414475 L1427.30412,723.607539 L1427.37772,718.417809 L1422.38614,718.312084 L1422.38614,705.192962 L1419.24396,704.953931 L1419.00014,701.327097 L1410.65475,699.391865 L1410.97219,695.797208 L1415.61414,695.889143 L1415.73375,693.471253 L1418.87592,692.38642 L1419.59821,689.357162 L1422.50575,688.520554 L1420.20548,666.281483 C1420.20548,666.281483 1430.85574,653.82889 1430.48769,653.82889 C1430.12425,653.82889 1424.07453,646.097158 1424.07453,646.097158 L1418.14904,650.932938 L1411.62086,638.278088 L1405.81498,638.278088 L1401.62388,632.679248 L1405.01908,628.937494 L1405.37793,623.251316 L1411.54266,622.405514 L1405.86558,620.718507 L1411.54266,617.330703 L1404.16798,617.091672 L1408.40048,612.136377 L1401.50427,615.6391 L1400.9062,609.355344 L1398.00326,615.275956 L1396.06643,615.156441 L1391.95354,611.768637 L1394.00538,617.68925 L1389.64867,617.091672 L1389.64867,612.687987 L1388.61355,612.13178 L1388.1949,596.056949 L1385.47598,592.264631 L1385.54039,591.464797 L1390.49517,591.349878 L1390.49517,586.872645 L1389.28983,585.305153 L1385.6554,585.061526 L1385.29656,583.756049 L1389.28983,583.250407 L1389.28983,579.623572 L1387.96027,577.522857 L1387.83606,575.753109 L1386.38689,574.066102 L1388.45713,569.717578 L1388.45713,566.568805 L1380.09334,577.522857 L1380.09334,582.046058 L1381.54251,583.756049 L1381.91056,584.822495 L1380.45679,584.822495 L1379.00301,586.757726 L1379.00301,591.588909 L1381.17907,592.793257 L1381.19747,598.382904 L1383.9762,598.382904 L1383.9762,604.013922 L1379.49527,624.409697 L1379.49527,632.518362 L1382.05317,634.651253 L1382.05317,643.614914 L1384.22923,648.25763 L1382.05317,660.250548 L1382.05317,664.948425 L1384.52367,664.948425 L1384.94231,667.196236 L1384.62488,676.895376 L1386.5479,676.895376 L1386.62151,687.587414 L1384.62488,695.245598 L1384.62488,717.636362 L1380.45679,717.549024 L1380.45679,723.483426 L1374.59109,723.414475 L1375.89305,730.57621 L1380.84323,730.54863 L1375.24437,741.006233 C1375.24437,741.006233 1372.63586,722.108999 1351.12372,710.391885 C1349.15009,709.311649 1347.19946,708.41988 1345.26723,707.610852 C1335.46347,695.562773 1316.90948,697.796793 1316.90948,697.796793 L1316.90948,688.157411 L1313.02202,689.343372 C1311.86729,685.238475 1309.76024,683.050423 1307.89242,681.882849 L1307.89242,614.397977 L1283.68436,614.397977 L1283.68436,664.143994 L1282.02356,664.143994 L1282.02356,685.017831 L1281.08045,685.964762 L1274.54768,685.964762 L1274.54768,493.609206 L1243.85286,493.227675 L1243.85286,648.142711 C1240.8211,648.542629 1238.11598,649.5723 1235.89392,650.726084 L1235.89392,509.89089 L1213.34206,487.362224 L1186.24946,509.541537 L1186.5945,630.537163 C1182.53222,630.040714 1178.9438,630.624501 1175.90284,631.732318 L1175.90284,403.540507 L1160.75325,403.361234 L1160.49102,400.230848 L1172.31441,400.318186 L1175.90284,398.65876 L1175.90284,396.052403 L1173.0275,393.703464 L1160.23339,393.44145 L1158.14474,305 L1155.92728,393.464433 L1142.47989,393.464433 L1139.60455,395.528374 L1139.86218,398.65876 L1142.99515,400.230848 L1155.92728,400.230848 L1155.92728,402.736076 L1138.51882,402.736076 L1138.51882,622.097532 L1132.09186,616.595223 L1121.66243,628.32153 L1121.66243,642.649596 L1118.40065,642.649596 L1118.40065,676.513846 L1115.13886,676.513846 L1115.13886,691.706101 L1108.15984,691.706101 L1108.15984,612.687987 L1100.79437,612.687987 L1100.79437,588.467717 L1086.6385,588.467717 L1086.6385,612.687987 L1084.79828,612.687987 L1084.79828,634.467383 L1062.70187,634.467383 L1062.70187,638.062041 C1059.69772,638.025267 1057.77929,637.99309 1057.77929,637.99309 L1057.77929,639.211228 L1055.84246,639.211228 L1055.84246,623.196155 L1051.82159,623.196155 L1051.82159,615.648293 L1023.88709,615.648293 L1023.88709,652.629138 L1013.68769,652.629138 L1013.68769,682.383894 L1008.60869,682.383894 L1008.60869,676.991908 L999.978067,676.991908 L999.978067,673.434024 L995.911187,673.434024 L995.911187,668.36381 L990.832188,668.36381 L990.832188,682.383894 L987.37718,682.383894 L987.37718,656.324924 L980.204933,612.687987 L973.028086,656.324924 L973.028086,681.083014 L970.562195,681.694382 L970.562195,603.324409 L933.201184,603.324409 L933.201184,619.137226 L927.850752,619.137226 L927.850752,650.808826 L926.194557,650.808826 L923.489437,637.99309 L920.006826,650.808826 L910.575713,650.808826 C910.575713,637.99309 910.575713,621.674631 910.575713,621.674631 L903.467874,621.674631 L903.467874,627.760727 L883.151875,627.760727 L883.151875,623.196155 L873.504536,623.196155 L873.504536,629.79249 L866.387496,629.79249 L866.387496,624.717679 L858.773597,624.717679 L858.773597,651.116808 C855.037956,651.263904 850.860663,651.351242 849.825541,651.047857 C850.405209,653.070426 849.590913,667.113494 849.590913,667.113494 L843.959848,667.113494 L843.959848,684.337513 L839.391509,684.337513 L839.391509,656.977663 L834.179094,647.204975 L828.962078,658.931281 L828.962078,678.476658 L825.097622,678.476658 L825.097622,606.588101 L798.253453,606.588101 L798.253453,618.116747 L795.281502,618.116747 L795.281502,642.833466 L785.629562,642.833466 L785.629562,607.967126 L768.510941,607.967126 L768.510941,579.940747 L746.741171,579.940747 L746.741171,593.763171 L725.693686,593.763171 L725.693686,648.510451 L723.68785,648.510451 L723.68785,670.983957 L721.714217,672.955962 L721.714217,501.115697 L717.725546,501.115697 L717.725546,472.845691 L713.732274,472.845691 L713.732274,460.88495 L709.743603,460.88495 L709.743603,456.173282 L705.39149,456.173282 L705.39149,449.645899 L701.761661,450.372185 L701.761661,447.11309 L699.585604,446.749947 C699.585604,446.749947 699.38318,419.197034 699.585604,414.12682 C699.80643,408.445238 693.844126,407.902822 693.844126,407.902822 L693.844126,393.464433 L692.031512,393.464433 L692.031512,407.778709 C685.047888,408.040724 684.712048,413.400533 684.712048,413.400533 L684.712048,449.645899 L679.274206,449.645899 L679.274206,455.446996 L674.917492,455.446996 L674.917492,461.243496 L670.565378,461.60664 L670.565378,471.751664 L667.298993,472.119404 L667.298993,500.752553 L665.122936,500.752553 L665.122936,644.874423 L661.76914,647.549731 L661.76914,650.473263 C661.571316,650.468666 661.4333,650.46407 661.4333,650.46407 L661.4333,658.719831 L656.717743,658.719831 L656.717743,577.522857 L634.483318,577.522857 L634.483318,664.810523 L633.531006,664.810523 L623.096974,654.389693 L623.096974,583.608953 L616.495195,583.608953 L616.495195,577.522857 L599.114343,577.522857 L599.114343,536.519857 L583.697923,536.519857 L583.697923,621.150602 L569.302823,621.150602 L569.302823,549.652769 L550.610817,549.652769 L550.610817,658.719831 L545.89526,658.719831 L545.89526,652.123496 L538.226155,652.491236 L538.226155,643.302335 L537.7661,643.302335 L537.7661,637.409303 L530.653661,637.409303 L530.653661,632.329895 L528.376392,632.329895 L528.376392,583.98129 L502.604149,583.98129 L502.604149,628.270966 L497.552753,628.270966 L497.552753,583.98129 L474.425823,583.98129 L474.425823,620.658749 L467.166166,620.658749 L467.166166,635.703909 L464.562258,634.182385 L461.300473,637.99309 L461.300473,643.94588 L458.043289,644.603215 L458.043289,677.125213 L452.922884,677.125213 L452.922884,574.075296 L450.723824,571.87805 L450.723824,560.55166 L446.307303,556.138781 L446.307303,530.203924 L440.105771,524.251134 L440.105771,516.156259 L439.153459,514.965701 L439.153459,508.300415 L437.483461,506.86623 L437.483461,498.29789 L435.10038,497.819828 L435.10038,489.251488 L434.152668,488.534395 L434.152668,483.059667 L432.721899,481.869109 L432.721899,476.867846 L430.817274,472.822707 L430.757467,434.214613 L430.757467,434.931705 L429.860361,472.822707 L428.668821,472.822707 L428.668821,479.961458 L425.213813,487.343837 L425.213813,493.655173 L421.519577,497.346363 L421.519577,505.441237 L419.076688,505.441237 L419.076688,514.188851 L417.346884,515.917228 L417.346884,522.941061 L416.04033,524.251134 L416.04033,531.628916 L414.632564,531.628916 L414.632564,556.934019 L411.099347,556.934019 L411.099347,563.406241 L406.97726,563.406241 L406.97726,672.615803 L401.98107,672.615803 L401.98107,666.745754 L399.105731,666.745754 L399.105731,612.687987 L352.460824,612.687987 L352.460824,681.179546 C348.817194,681.404787 345.265574,681.377206 345.265574,680.430276 C345.265574,680.894548 345.265574,685.151137 345.265574,690.694816 L343.232134,692.726579 L343.232134,658.719831 L330.028576,658.719831 L330.028576,694.105604 L323.426796,694.105604 L323.426796,650.09633 L292.442138,650.09633 L292.442138,710.25858 L284.570609,710.25858 L284.570609,679.271895 L254,679.271895 L254,1239 L1445,1239 L1444.9978,759.241536 C1445.22783,735.784327 1427.30412,729.808553 1427.30412,729.808553 L1432.59014,729.928068 Z" id="tab-bg"></path>
        </g>
    </g>
</svg>