<?xml version="1.0" encoding="UTF-8"?>
<svg width="45px" height="36px" viewBox="0 0 45 36" version="1.1" xmlns="http://www.w3.org/2000/svg" xmlns:xlink="http://www.w3.org/1999/xlink">
    <!-- Generator: Sketch 53 (72520) - https://sketchapp.com -->
    <title>“</title>
    <desc>Created with Sketch.</desc>
    <g id="LP" stroke="none" stroke-width="1" fill="none" fill-rule="evenodd">
        <g id="0.0---LP-Desk-v2" transform="translate(-662.000000, -5138.000000)" fill="#1D6FDC" fill-rule="nonzero">
            <g id="Testimon" transform="translate(168.000000, 4943.000000)">
                <g id="2" transform="translate(438.000000, 133.000000)">
                    <path d="M70.6853147,78.8352941 C72.4335752,79.6117686 73.7971979,80.7764628 74.7762238,82.3294118 C75.7552497,83.8823607 76.2447552,85.7176365 76.2447552,87.8352941 C76.2447552,90.8706034 75.3007087,93.3235201 73.4125874,95.1941176 C71.5244661,97.0647152 69.1119028,98 66.1748252,98 C63.2377476,98 60.8077019,97.0470684 58.8846154,95.1411765 C56.9615288,93.2352846 56,90.8000148 56,87.8352941 C56,86.4235224 56.1748234,85.0117718 56.5244755,83.6 C56.8741276,82.1882282 57.6433507,80.0706024 58.8321678,77.2470588 L64.9160839,62 L75.3006993,62 L70.6853147,78.8352941 Z M95.4405594,78.8352941 C97.1888199,79.6117686 98.5524427,80.7764628 99.5314685,82.3294118 C100.510494,83.8823607 101,85.7176365 101,87.8352941 C101,90.8706034 100.055953,93.3235201 98.1678322,95.1941176 C96.2797108,97.0647152 93.8671476,98 90.9300699,98 C87.9929923,98 85.5629467,97.0470684 83.6398601,95.1411765 C81.7167736,93.2352846 80.7552448,90.8000148 80.7552448,87.8352941 C80.7552448,86.4235224 80.9300682,85.0117718 81.2797203,83.6 C81.6293724,82.1882282 82.3985955,80.0706024 83.5874126,77.2470588 L89.6713287,62 L100.055944,62 L95.4405594,78.8352941 Z" id="“"></path>
                </g>
            </g>
        </g>
    </g>
</svg>