<?xml version="1.0" encoding="UTF-8"?>
<svg width="28px" height="52px" viewBox="0 0 28 52" version="1.1" xmlns="http://www.w3.org/2000/svg" xmlns:xlink="http://www.w3.org/1999/xlink">
    <!-- Generator: Sketch 53 (72520) - https://sketchapp.com -->
    <title>stripes</title>
    <desc>Created with Sketch.</desc>
    <g id="stripes" stroke="none" stroke-width="1" fill="none" fill-rule="evenodd">
        <rect fill="#FFFFFF" x="0" y="0" width="28" height="52"></rect>
        <g id="Combined-Shape-2" transform="translate(-1.000000, -18.000000)" fill="#EFF3F6">
            <path d="M-1.74865677e-12,16.9410926 L29.4990794,6.14619466e-13 L30,0.863024506 L0.50092063,17.8041172 L-1.74865677e-12,16.9410926 Z M-2.13962181e-12,29.3310232 L29.4990794,12.3899306 L30,13.2529551 L0.50092063,30.1940477 L-2.13962181e-12,29.3310232 Z M-1.91197058e-12,33.3171627 L29.4990794,16.37607 L30,17.2390945 L0.50092063,34.1801872 L-1.91197058e-12,33.3171627 Z M-1.96187511e-12,37.3033021 L29.4990794,20.3622095 L30,21.225234 L0.50092063,38.1663266 L-1.96187511e-12,37.3033021 Z M-1.91030525e-12,41.2894416 L29.4990794,24.3483489 L30,25.2113734 L0.50092063,42.1524661 L-1.91030525e-12,41.2894416 Z M-1.41991974e-12,45.275581 L29.4990794,28.3344884 L30,29.1975129 L0.50092063,46.1386055 L-1.41991974e-12,45.275581 Z M-1.93439709e-12,49.2617205 L29.4990794,32.3206278 L30,33.1836523 L0.50092063,50.124745 L-1.93439709e-12,49.2617205 Z M-2.18131069e-12,53.2478599 L29.4990794,36.3067673 L30,37.1697918 L0.50092063,54.1108844 L-2.18131069e-12,53.2478599 Z M-1.71568315e-12,57.2339994 L29.4990794,40.2929067 L30,41.1559312 L0.50092063,58.0970239 L-1.71568315e-12,57.2339994 Z M-2.05141459e-12,61.2201388 L29.4990794,44.2790462 L30,45.1420707 L0.50092063,62.0831633 L-2.05141459e-12,61.2201388 Z M-1.75864878e-12,65.2062783 L29.4990794,48.2651856 L30,49.1282101 L0.50092063,66.0693028 L-1.75864878e-12,65.2062783 Z M-1.96986871e-12,69.1924177 L29.4990794,52.2513251 L30,53.1143496 L0.50092063,70.0554422 L-1.96986871e-12,69.1924177 Z M-1.3714585e-12,73.1785572 L29.4990794,56.2374645 L30,57.100489 L0.50092063,74.0415817 L-1.3714585e-12,73.1785572 Z M-1.86312077e-12,77.1646966 L29.4990794,60.223604 L30,61.0866285 L0.50092063,78.0277211 L-1.86312077e-12,77.1646966 Z M-1.61892721e-12,81.150836 L29.4990794,64.2097434 L30,65.0727679 L0.50092063,82.0138606 L-1.61892721e-12,81.150836 Z M-1.88188354e-12,85.1369755 L29.4990794,68.1958828 L30,69.0589074 L0.50092063,86 L-1.88188354e-12,85.1369755 Z M-1.67238445e-12,24.9133715 L29.4990794,7.97227889 L30,8.8353034 L0.50092063,25.776396 L-1.67238445e-12,24.9133715 Z M-2.12846407e-12,20.9272321 L29.4990794,3.98613945 L30,4.84916395 L0.50092063,21.7902566 L-2.12846407e-12,20.9272321 Z" id="Combined-Shape"></path>
        </g>
    </g>
</svg>