<?xml version="1.0" encoding="UTF-8"?>
<svg width="46px" height="46px" viewBox="0 0 46 46" version="1.1" xmlns="http://www.w3.org/2000/svg" xmlns:xlink="http://www.w3.org/1999/xlink">
    <!-- Generator: Sketch 53 (72520) - https://sketchapp.com -->
    <title>logo</title>
    <desc>Created with Sketch.</desc>
    <g id="Design" stroke="none" stroke-width="1" fill="none" fill-rule="evenodd">
        <g id="1.0---Dashboard" transform="translate(-30.000000, -22.000000)">
            <g id="Header">
                <g id="LOGO" transform="translate(30.000000, 22.000000)">
                    <g id="logo">
                        <path d="M32.2005367,0 L13.80023,0 C6.19093652,0 0,6.18918288 0,13.796321 L0,24.5267929 C0,31.8771661 5.77922965,37.9030925 13.0335506,38.3024194 L13.0335506,44.6977806 C13.0335506,45.4159557 13.6192937,46 14.338439,46 C14.682678,46 15.0077501,45.8643362 15.2546209,45.6175353 L16.6929115,44.1796521 C20.4711079,40.402526 25.4936249,38.3231138 30.8350806,38.3231138 L32.19977,38.3231138 C39.8090635,38.3231138 46,32.133931 46,24.5267929 L46,13.796321 C46.0007667,6.18918288 39.8090635,0 32.2005367,0 Z" id="Path-Copy-18" fill="#FEC400"></path>
                        <path d="M30.9523392,13.0381081 C30.8354067,12.6484908 30.5200092,12.3646156 30.1404121,12.3071579 L25.8201784,11.6533631 L23.8924598,7.58545705 C23.7222611,7.22634639 23.3771971,7 23,7 C22.6228029,7 22.2777389,7.2264175 22.1075402,7.58545705 L20.1798216,11.6533631 L15.8595879,12.3071579 C15.4799908,12.3646156 15.1645933,12.6484908 15.0476608,13.0379658 C14.9307284,13.4274409 15.0329276,13.8539648 15.3106588,14.1358489 L18.4223683,17.2947428 L17.6889073,21.7486395 C17.6232411,22.1474301 17.7749066,22.5515541 18.0805043,22.7917671 C18.3860353,23.0319801 18.7927655,23.0670379 19.1304963,22.8821492 L23,20.7636096 L26.8695037,22.8822914 C27.2072345,23.0671801 27.6139647,23.0321935 27.9194957,22.7919093 C28.2250267,22.5516252 28.3766922,22.1475723 28.3110927,21.7487817 L27.5776317,17.294885 L30.6893412,14.1359912 C30.9670724,13.8540359 31.0692716,13.4275831 30.9523392,13.0381081 Z" id="Shape" fill="#343539" fill-rule="nonzero"></path>
                        <path d="M22.924305,30.9652874 C22.5207159,30.9652874 22.115643,30.978116 21.7127958,30.9615143 C21.3915567,30.9479311 21.0718013,30.9026538 20.7527879,30.8619042 C20.3417798,30.8090806 19.9307718,30.7570117 19.5219894,30.6868318 C19.1651395,30.6257075 18.8097733,30.548736 18.4581166,30.4611998 C18.0441235,30.3621907 17.6336131,30.2486783 17.2273182,30.1208653 C16.7519581,29.9667767 16.2816021,29.7971503 15.816982,29.61225 C14.9605639,29.2685612 14.1311918,28.8588687 13.3360959,28.3867438 C12.50766,27.9032306 11.7187209,27.3528527 10.9768802,26.7409131 C10.7188965,26.5259065 10.4634206,26.3078055 10.210506,26.0866558 C10.1445064,26.0303077 10.0872322,25.9641645 10.0406128,25.890454 C9.93971548,25.7244372 10.0361614,25.5478556 10.2268276,25.5516287 C10.3063372,25.5537314 10.3841899,25.5752107 10.4538465,25.6142624 C11.2899585,26.094202 12.1379408,26.551503 13.0282109,26.9182493 C13.7463621,27.2140611 14.4704484,27.4970444 15.2049213,27.7438058 C15.9022995,27.9784933 16.61229,28.1822412 17.3267317,28.3573135 C17.9632748,28.5135203 18.6109463,28.625959 19.257876,28.7316061 C19.8142948,28.8221607 20.3766487,28.8772481 20.9360351,28.9451641 C21.9346214,29.0666583 22.938401,29.0825053 23.9406967,29.0500566 C24.6707182,29.0266633 25.3992559,28.9504465 26.1263099,28.8749843 C26.6583763,28.8188172 27.1882056,28.7425477 27.7147001,28.6463338 C28.1953469,28.5552434 28.6731066,28.4490423 29.1472931,28.3278833 C29.6225496,28.2139487 30.0943557,28.0856058 30.5620807,27.943026 C31.0713853,27.7809092 31.5767613,27.6062889 32.0777655,27.4193183 C32.4227452,27.2932964 32.7580803,27.1393535 33.10306,27.0133317 C33.2056856,26.9784258 33.3157337,26.9726855 33.4213315,26.99673 C33.5519045,27.0261602 33.664672,27.1091687 33.692122,27.2608477 C33.730091,27.4325608 33.6594531,27.6102316 33.5148099,27.7068293 C33.2863072,27.87511 33.061514,28.050937 32.8189154,28.1958244 C32.3389114,28.4825808 31.8581656,28.7723557 31.3588724,29.0206263 C30.8439995,29.2771978 30.3120632,29.5028298 29.7764173,29.7095963 C29.2563512,29.9103257 28.7258986,30.0906804 28.1902527,30.2423595 C27.6479299,30.3955477 27.0952205,30.508741 26.5439949,30.6272167 C26.1953058,30.7026789 25.8436491,30.7653125 25.4905086,30.8158722 C25.1484965,30.8649227 24.8042587,30.9018991 24.460021,30.9245378 C23.9488575,30.9584958 23.4369522,30.9758521 22.9250469,31 L22.924305,30.9652874 Z M35.3547014,25.1380958 C35.4875001,25.1720538 35.618073,25.219595 35.7456784,25.2716639 C35.8918311,25.3320337 35.9578594,25.451264 35.9786324,25.6112439 C36.0335324,26.0308137 35.9749229,26.4428374 35.8903473,26.8495787 C35.7788855,27.3938184 35.5957159,27.920266 35.3457987,28.4146648 C35.0824272,28.9315809 34.7656394,29.4107659 34.3197624,29.788077 C34.2893449,29.8144887 34.2559597,29.8371274 34.2225746,29.8605207 C34.1365152,29.9208905 34.0422949,29.9578669 33.9532679,29.8808955 C33.8649828,29.8046787 33.8879814,29.6945038 33.9213666,29.6024399 C34.0838409,29.1541944 34.2626368,28.7112313 34.4176921,28.2599673 C34.5846178,27.7739907 34.7248353,27.2797132 34.7634137,26.7627971 C34.7908637,26.4005785 34.5868435,26.1719281 34.18548,26.1183499 C33.6880636,26.0524639 33.1846631,26.0476501 32.6861168,26.1040121 C32.2684317,26.1507986 31.8492629,26.1832474 31.4308359,26.2209785 C31.3967089,26.223997 31.36184,26.2232424 31.3269711,26.2224877 C31.2468468,26.2209785 31.1548522,26.2315432 31.1274022,26.12816 C31.101436,26.0315684 31.1229509,25.9357314 31.2030752,25.874607 C31.3173265,25.7870708 31.4367711,25.7040624 31.5621508,25.6338825 C32.0347205,25.3650438 32.5521236,25.1874846 33.0882221,25.1101748 C33.4458139,25.0588605 33.8071152,25.0354672 34.1676746,25 C34.5690381,25.0203748 34.9659502,25.0392403 35.3547014,25.1380958 Z" id="Path-2" fill="#343539" fill-rule="nonzero"></path>
                    </g>
                </g>
            </g>
        </g>
    </g>
</svg>