<?xml version="1.0" standalone="no"?>
<!DOCTYPE svg PUBLIC "-//W3C//DTD SVG 20010904//EN"
 "http://www.w3.org/TR/2001/REC-SVG-20010904/DTD/svg10.dtd">
<svg version="1.0" xmlns="http://www.w3.org/2000/svg"
 width="512.000000pt" height="512.000000pt" viewBox="0 0 512.000000 512.000000"
 preserveAspectRatio="xMidYMid meet">
<metadata>
Created by potrace 1.11, written by Peter Selinger 2001-2013
</metadata>
<g transform="translate(0.000000,512.000000) scale(0.100000,-0.100000)"
fill="#000000" stroke="none">
<path d="M1379 5066 c-2 -2 -29 -7 -60 -10 -315 -36 -633 -193 -871 -428 -149
-148 -242 -286 -339 -503 -24 -55 -69 -211 -85 -300 -17 -92 -19 -161 -19
-850 0 -412 4 -772 8 -800 53 -316 197 -609 403 -820 269 -276 575 -424 967
-469 21 -2 41 -7 45 -10 3 -4 6 -170 7 -369 0 -342 1 -364 20 -395 38 -63 139
-88 196 -49 10 8 76 70 146 138 204 199 354 312 559 422 118 63 192 94 344
147 96 33 256 69 420 95 35 5 182 11 460 20 80 2 159 7 175 10 17 3 46 8 65
11 19 3 45 8 58 10 53 10 263 84 322 114 217 108 419 271 540 435 25 33 48 62
51 65 17 15 105 173 141 253 36 82 81 219 94 287 2 14 7 31 9 39 16 44 20 213
20 891 l0 755 -23 104 c-127 563 -514 983 -1057 1147 -44 14 -93 27 -110 29
-44 8 -77 14 -105 22 -26 8 -2373 16 -2381 9z"/>
</g>
</svg>
