<?xml version="1.0" encoding="UTF-8"?>
<svg width="18px" height="18px" viewBox="0 0 18 18" version="1.1" xmlns="http://www.w3.org/2000/svg" xmlns:xlink="http://www.w3.org/1999/xlink">
    <!-- Generator: Sketch 53 (72520) - https://sketchapp.com -->
    <title>amazon</title>
    <desc>Created with Sketch.</desc>
    <g id="Design" stroke="none" stroke-width="1" fill="none" fill-rule="evenodd">
        <g id="4.1---Comments" transform="translate(-831.000000, -569.000000)" fill="#FFFFFF" fill-rule="nonzero">
            <g id="@" transform="translate(453.000000, 214.000000)">
                <g id="Group">
                    <g id="actions" transform="translate(362.000000, 342.000000)">
                        <g id="edit">
                            <g id="Group-10" transform="translate(16.000000, 0.000000)">
                                <path d="M9.43995161,18.0806488 C8.95535038,18.0420809 7.90043313,18.0288511 6.27542309,18.3676657 C3.95978381,18.8506615 2.89102721,20.9981314 2.89102721,22.6805442 C2.89102721,24.3622842 4.49393888,26.3128784 6.89886448,26.3128784 C8.73905442,26.3128784 9.77656083,25.2015846 10.1613846,24.6797967 C10.2477691,24.5638687 10.4216541,24.5696988 10.5000028,24.691681 C10.5953159,24.8410195 10.7312542,25.0390164 10.9064785,25.2567457 C11.0944261,25.4910681 11.3453205,25.7244936 11.5486699,25.8996188 C11.7450997,26.0689139 12.0375123,26.0590478 12.2254598,25.8803348 L13.8194429,24.3546603 C14.0040423,24.1779655 14.0297121,23.891397 13.8783719,23.6853278 C13.7904249,23.5658121 13.6794867,23.4115405 13.5424323,23.2173555 C13.114751,22.6087899 13.1328316,22.1257941 13.1328316,22.1257941 L13.1328316,16.4711114 C13.1328316,15.79124 12.7230076,13 8.41226669,13 C4.89193243,13 3.81915797,15.5179012 3.54393302,16.4412885 C3.49125412,16.6179834 3.60576374,16.7998355 3.78679166,16.8303311 L5.9727427,17.2014351 C6.10555598,17.2238583 6.23747645,17.1572614 6.29707505,17.0357276 C6.53680865,16.5482473 7.23368798,15.3616115 8.32320362,15.3616115 C9.69531033,15.3620599 9.74865883,16.4892742 9.74865883,16.4892742 L9.74865883,17.7922864 C9.74865883,17.9604604 9.60736333,18.0936542 9.43995161,18.0806488 Z M9.78459659,20.1718365 L9.78459659,21.8206144 C9.78459659,22.6816653 9.19441438,23.4364303 8.35780207,23.6229913 C8.14150604,23.6716496 7.89418314,23.7003513 7.61092242,23.7003513 C5.79417017,23.7003513 6.13256506,21.3562299 6.97007024,20.6581957 C7.60467238,20.1290081 8.89374286,19.9496225 9.48080003,19.8942372 C9.6439707,19.8787652 9.78459659,20.0074744 9.78459659,20.1718365 Z M14.8873067,27.0326631 C14.0060512,27.1402945 14.0593997,26.7373496 14.0593997,26.7373496 C14.0593997,26.7373496 14.0593997,26.5767995 14.2596242,26.4422603 C14.4598487,26.3083938 17.1676779,25.1852156 17.8134408,26.1875327 C18.5900081,27.393004 16.7219162,29.8200912 16.2366454,29.5561701 C15.8214642,29.3301442 16.2504847,28.8711414 16.4237001,28.3213245 C16.5973619,27.7710591 16.6911125,27.2880634 16.4237001,27.0512744 C16.1567342,26.8140369 15.7692318,26.9254803 14.8873067,27.0326631 Z M8.19976537,31 C4.23969623,31 1.0738285,28.4690933 0.451056767,27.6995291 C-0.172384569,26.9299648 0.0320809794,26.5364377 0.0320809794,26.5364377 C0.0320809794,26.5364377 0.272484236,26.0619628 0.949274131,26.5364377 C1.62628728,27.0102399 4.79706578,29.2474026 7.94998703,29.2474026 C11.1029083,29.2474026 13.2933236,28.4060842 14.0060512,28.1018013 C14.7181092,27.797967 15.5201231,27.4174453 15.7161064,27.7865312 C15.9120898,28.1558412 15.6446774,28.7460199 14.2377491,29.5335227 C12.8303743,30.3208013 11.4584909,31 8.19976537,31 Z" id="amazon"></path>
                            </g>
                        </g>
                    </g>
                </g>
            </g>
        </g>
    </g>
</svg>