<?xml version="1.0" standalone="no"?>
<!DOCTYPE svg PUBLIC "-//W3C//DTD SVG 1.1//EN" "http://www.w3.org/Graphics/SVG/1.1/DTD/svg11.dtd">
<svg xmlns="http://www.w3.org/2000/svg">
<metadata>Generated by Fontastic.me</metadata>
<defs>
<font id="vpins" horiz-adv-x="512">
<font-face font-family="vpins" units-per-em="512" ascent="480" descent="-32"/>
<missing-glyph horiz-adv-x="512" />

<glyph glyph-name="ac" unicode="&#97;" d="M492 276l-66 0 22 39c6 10 3 22-7 28-10 5-22 2-28-8l-22-39-33 56 45 0c12 0 21 9 21 20 0 12-9 21-21 21l-45 0 33 57c6 9 3 22-7 27-10 6-22 3-28-7l-33-57-22 39c-6 9-18 13-28 7-9-5-13-18-7-27l22-39-64 0 22 39c6 9 2 22-7 27-10 6-22 2-28-7l-22-39-33 57c-6 10-18 13-28 7-10-5-13-18-7-27l33-57-45 0c-12 0-21-9-21-21 0-11 9-20 21-20l45 0-33-56-22 39c-6 10-18 13-28 8-10-6-13-18-7-28l22-39-66 0c-11 0-20-9-20-20 0-11 9-20 20-20l66 0-22-39c-6-10-3-22 7-28 3-1 7-2 10-2 7 0 14 3 18 10l22 39 33-56-45 0c-12 0-21-9-21-20 0-12 9-21 21-21l45 0-33-57c-6-9-3-22 7-27 3-2 7-3 10-3 7 0 14 4 18 10l33 57 22-39c4-6 11-10 18-10 3 0 7 1 10 3 9 5 13 18 7 27l-22 39 64 0-22-39c-6-9-2-22 7-27 3-2 7-3 10-3 7 0 14 4 18 10l22 39 33-57c4-6 11-10 18-10 3 0 7 1 10 3 10 5 13 18 7 27l-33 57 45 0c12 0 21 9 21 21 0 11-9 20-21 20l-45 0 33 56 22-39c4-7 11-10 18-10 3 0 7 1 10 2 10 6 13 18 7 28l-22 39 66 0c11 0 20 9 20 20 0 11-9 20-20 20z m-180-116l-112 0-55 96 55 96 112 0 55-96z"/>
<glyph glyph-name="add" unicode="&#98;" d="M303 303l186 0c13 0 23-11 23-24l0-46c0-13-10-24-23-24l-186 0 0-186c0-13-11-23-24-23l-46 0c-13 0-24 10-24 23l0 186-186 0c-13 0-23 11-23 24l0 46c0 13 10 24 23 24l186 0 0 186c0 13 11 23 24 23l46 0c13 0 24-10 24-23z"/>
<glyph glyph-name="add-property" unicode="&#99;" d="M256 512c141 0 256-115 256-256 0-141-115-256-256-256-141 0-256 115-256 256 0 141 115 256 256 256z m0-469c118 0 213 95 213 213 0 118-95 213-213 213-118 0-213-95-213-213 0-118 95-213 213-213z m105 225c4-3 5-8 3-13-1-4-6-7-10-7l-16 0 0-94c0-4-3-7-6-7l-54 0c-3 0-6 3-6 7l0 57-32 0 0-57c0-4-3-7-6-7l-54 0c-3 0-6 3-6 7l0 94-16 0c-4 0-9 3-10 7-2 5-1 10 3 13l97 94c5 4 11 4 16 0z m-99 12l0 21c0 2-1 3-3 3l-6 0c-2 0-3-1-3-3l0-21-21 0c-2 0-3-1-3-3l0-6c0-2 1-3 3-3l21 0 0-21c0-2 1-3 3-3l6 0c2 0 3 1 3 3l0 21 21 0c2 0 3 1 3 3l0 6c0 2-1 3-3 3z"/>
<glyph glyph-name="amenities" unicode="&#100;" d="M500 68c7-1 12-7 12-14 0-8-5-14-12-15l0-1-375 0 0 1c-7 1-12 7-12 15 0 7 5 13 12 14l0 60c0 51 34 186 188 186 147 0 187-124 187-186z m-405 43c-19 14-35 53-42 73-5 16-16 58-46 58-6 0-7 3-7 7l0 50c0 4 3 6 7 6 50 0 73-17 93-33 9-8 21-15 33-20-28-43-38-92-38-124l0-17c0 0 0 0 0 0z m141 221c-1 1-2 2-2 2-4 8-2 18 5 22 12 7 30 12 49 14-2 4-4 9-4 14 0 14 12 25 26 25 14 0 26-11 26-25 0-5-2-10-4-14 22-1 41-6 54-14 8-4 10-13 6-21-1-1-2-2-2-3-22 7-48 12-77 12-30 0-56-5-77-12z m-31 4c0-5 1-11 1-16-9-6-18-11-27-18-2 11-4 23-4 34 0 76 62 138 138 138 77 0 139-62 139-138 0-12-2-23-5-35-8 7-17 13-27 18 1 6 2 11 2 17 0 60-49 108-109 108-59 0-108-48-108-108z"/>
<glyph glyph-name="arrow-down" unicode="&#101;" d="M452 421l60-63-256-267-256 267 60 63 196-204z"/>
<glyph glyph-name="arrow-left" unicode="&#102;" d="M421 60l-63-60-267 256 267 256 63-60-204-196z"/>
<glyph glyph-name="arrow-right" unicode="&#103;" d="M91 60l204 196-204 196 63 60 267-256-267-256z"/>
<glyph glyph-name="arrow-up" unicode="&#104;" d="M60 91l-60 63 256 267 256-267-60-63-196 204z"/>
<glyph glyph-name="bath" unicode="&#105;" d="M310 512c69 0 125-62 125-138l0-351c0-13-9-23-21-23-12 0-21 10-21 23l0 351c0 51-37 91-83 91-24 0-46-11-62-30 48-21 82-71 82-131 0-13-10-23-21-23l-211 0c-12 0-21 10-21 23 0 77 56 139 126 140 22 42 63 68 107 68z m-191-402c12 0 21-10 21-23l0-31c0-13-9-23-21-23-12 0-21 10-21 23l0 31c0 13 9 23 21 23z m84 0c12 0 21-10 21-23l0-31c0-13-9-23-21-23-11 0-21 10-21 23l0 31c0 13 10 23 21 23z m85 0c11 0 21-10 21-23l0-31c0-13-10-23-21-23-12 0-21 10-21 23l0 31c0 13 9 23 21 23z m-169 124c12 0 21-10 21-23l0-31c0-13-9-23-21-23-12 0-21 10-21 23l0 31c0 13 9 23 21 23z m84 0c12 0 21-10 21-23l0-31c0-13-9-23-21-23-11 0-21 10-21 23l0 31c0 13 10 23 21 23z m85 0c11 0 21-10 21-23l0-31c0-13-10-23-21-23-12 0-21 10-21 23l0 31c0 13 9 23 21 23z"/>
<glyph glyph-name="bedrooms" unicode="&#106;" d="M316 364l61 0c8 0 15-7 15-16l0-31c0-8-7-15-15-15l-61 0c-8 0-15 7-15 15l0 31c0 9 7 16 15 16z m-181 0l61 0c8 0 15-7 15-16l0-31c0-8-7-15-15-15l-61 0c-8 0-15 7-15 15l0 31c0 9 7 16 15 16z m284-62c2 5 3 10 3 15l0 31c0 26-20 46-45 46l-61 0c-25 0-45-20-45-46l0-31c0-5 1-10 3-15l-36 0c2 5 3 10 3 15l0 31c0 26-20 46-45 46l-61 0c-25 0-45-20-45-46l0-31c0-5 1-10 3-15l-48 0c-5 0-10 0-15-1l0 139c0 26 20 46 45 46l362 0c25 0 45-20 45-46l0-139c-5 1-10 1-15 1z m48-31c25 0 45-20 45-46l0-46-512 0 0 46c0 26 20 46 45 46z m-467-230l0 107 512 0 0-107c0-9-7-15-15-15l-30 0c-8 0-15 6-15 15l0 46-392 0 0-46c0-9-7-15-15-15l-30 0c-8 0-15 6-15 15z"/>
<glyph glyph-name="billing" unicode="&#107;" d="M499 448c9-8 13-18 13-30l0-324c0-12-4-22-13-30-8-9-18-13-30-13l-426 0c-12 0-22 4-30 13-9 8-13 18-13 30l0 324c0 12 4 22 13 30 8 9 18 13 30 13l426 0c12 0 22-4 30-13z m-21-354l0 162-444 0 0-162c0-2 1-4 3-6 1-2 3-3 6-3l426 0c3 0 5 1 6 3 2 2 3 4 3 6z m0 264l0 60c0 2-1 4-3 6-1 2-3 3-6 3l-426 0c-3 0-5-1-6-3-2-2-3-4-3-6l0-60z m-410-204l69 0 0-35-69 0z m103 0l102 0 0-35-102 0z"/>
<glyph glyph-name="cal" unicode="&#108;" d="M474 447c21 0 38-17 38-37l0-373c0-20-17-37-38-37l-436 0c-21 0-38 17-38 37l0 373c0 20 17 37 38 37l42 0 0 28c0 20 17 37 38 37l2 0c21 0 38-17 38-37l0-28 196 0 0 28c0 20 17 37 38 37l2 0c21 0 38-17 38-37l0-28z m-26-388l0 301-384 0 0-301z m-332 165c-3 0-6 3-6 6l0 64c0 4 3 6 6 6l66 0c4 0 7-2 7-6l0-64c0-3-3-6-7-6z m107 0c-4 0-6 3-6 6l0 64c0 4 2 6 6 6l66 0c4 0 6-2 6-6l0-64c0-3-2-6-6-6z m107 0c-4 0-7 3-7 6l0 64c0 4 3 6 7 6l66 0c3 0 6-2 6-6l0-64c0-3-3-6-6-6z m-214-104c-3 0-6 2-6 6l0 64c0 4 3 6 6 6l66 0c4 0 7-2 7-6l0-64c0-4-3-6-7-6z m107 0c-4 0-6 2-6 6l0 64c0 4 2 6 6 6l66 0c4 0 6-2 6-6l0-64c0-4-2-6-6-6z"/>
<glyph glyph-name="check" unicode="&#109;" d="M232 82c-23-24-61-24-84 0l-131 131c-23 23-23 61 0 84 24 23 61 23 84 0l78-78c6-6 15-6 21 0l211 211c23 24 60 24 84 0 11-11 17-26 17-42 0-16-6-31-17-42z"/>
<glyph glyph-name="comps" unicode="&#111;" d="M33 205l95 0 0-205-95 0c-18 0-33 16-33 35l0 135c0 19 15 35 33 35z m446-51c18 0 33-17 33-38l0-79c0-20-15-37-33-37l-95 0 0 154z m-156 128c19 0 35-16 35-35l0-247-204 0 0 247c0 19 16 35 35 35z m-64-161c9 0 16 7 16 16l0 62c0 0 0 1 0 1 0 0 0 0 0 1 0 0 0 0 0 0 0 1 0 1 0 1 0 0 0 1 0 1 0 0 0 0 0 1 0 0 0 0 0 0-1 1-1 1-1 1 0 0 0 0 0 1 0 0 0 0 0 0-1 1-1 1-1 1 0 0 0 1 0 1 0 0 0 0-1 0 0 1 0 1 0 1 0 0 0 0 0 0 0 0 0 0-1 1 0 0 0 0 0 0 0 0-1 1-1 1 0 0 0 0 0 0-1 0-1 1-1 1 0 0 0 0-1 0 0 0 0 0 0 1 0 0-1 0-1 0 0 0 0 0-1 0 0 0 0 1 0 1-1 0-1 0-1 0 0 0 0 0-1 0 0 0 0 0-1 0 0 0 0 1 0 1 0 0-1 0-1 0 0 0-1 0-1 0 0 0 0 0-1 0 0 0 0 0 0 0-1 0-1 0-1 0 0 0 0 0 0 0 0 0-1 0-1 0 0 0-1 0-1 0 0 0 0 0-1 0 0 0 0 0 0 0-1 0-1-1-1-1 0 0-1 0-1 0 0 0 0 0-1 0 0 0 0 0 0 0-1-1-1-1-1-1 0 0-1 0-1 0 0 0 0 0 0 0-1-1-1-1-1-1 0 0 0 0 0 0l-26-19c-8-5-9-15-4-22 4-4 8-6 13-6 4 0 7 1 10 3l0 0 0-31c0-9 7-16 16-16z m86 329c2-7 0-14-5-19l-29-26 7-39c1-6-1-13-7-17-3-2-7-3-11-3-3 0-6 0-9 2l-35 18-35-18c-7-4-14-3-20 1-6 4-8 11-7 17l7 39-29 26c-5 5-7 12-5 19 3 6 8 11 15 12l40 5 17 35c4 6 10 10 17 10 7 0 13-4 17-10l17-35 40-5c7-1 13-6 15-12z"/>
<glyph glyph-name="cross" unicode="&#112;" d="M493 109c25-25 25-65 0-90-12-13-29-19-45-19-16 0-33 6-45 19l-147 146-147-146c-12-13-29-19-45-19-16 0-33 6-45 19-25 25-25 65 0 90l147 147-147 147c-25 25-25 65 0 90 25 25 65 25 90 0l147-147 147 147c25 25 65 25 90 0 25-25 25-65 0-90l-147-147z"/>
<glyph glyph-name="cross-1" unicode="&#113;" d="M493 109c25-25 25-65 0-90-12-13-29-19-45-19-16 0-33 6-45 19l-147 146-147-146c-12-13-29-19-45-19-16 0-33 6-45 19-25 25-25 65 0 90l147 147-147 147c-25 25-25 65 0 90 25 25 65 25 90 0l147-147 147 147c25 25 65 25 90 0 25-25 25-65 0-90l-147-147z"/>
<glyph glyph-name="date-range-icon" unicode="&#116;" d="M256 512c141 0 256-115 256-256 0-141-115-256-256-256-141 0-256 115-256 256 0 141 115 256 256 256z m0-469c118 0 213 95 213 213 0 118-95 213-213 213-118 0-213-95-213-213 0-118 95-213 213-213z m81 284c7 0 14-6 14-14l0-148c0-7-7-13-14-13l-162 0c-7 0-14 6-14 13l0 148c0 8 7 14 14 14l16 0 0 10c0 8 6 14 14 14l0 0c8 0 15-6 15-14l0-10 72 0 0 10c0 8 7 14 15 14l0 0c8 0 14-6 14-14l0-10z m-10-154l0 112-142 0 0-112z m-123 62c-1 0-2 1-2 2l0 24c0 1 1 2 2 2l25 0c1 0 2-1 2-2l0-24c0-1-1-2-2-2z m40 0c-2 0-3 1-3 2l0 24c0 1 1 2 3 2l24 0c2 0 3-1 3-2l0-24c0-1-1-2-3-2z m39 0c-1 0-2 1-2 2l0 24c0 1 1 2 2 2l25 0c1 0 2-1 2-2l0-24c0-1-1-2-2-2z m-79-39c-1 0-2 1-2 2l0 24c0 1 1 2 2 2l25 0c1 0 2-1 2-2l0-24c0-1-1-2-2-2z m40 0c-2 0-3 1-3 2l0 24c0 1 1 2 3 2l24 0c2 0 3-1 3-2l0-24c0-1-1-2-3-2z m12 316c141 0 256-115 256-256 0-141-115-256-256-256-141 0-256 115-256 256 0 141 115 256 256 256z m0-469c118 0 213 95 213 213 0 118-95 213-213 213-118 0-213-95-213-213 0-118 95-213 213-213z m81 284c7 0 14-6 14-14l0-148c0-7-7-13-14-13l-162 0c-7 0-14 6-14 13l0 148c0 8 7 14 14 14l16 0 0 10c0 8 6 14 14 14l0 0c8 0 15-6 15-14l0-10 72 0 0 10c0 8 7 14 15 14l0 0c8 0 14-6 14-14l0-10z m-10-154l0 112-142 0 0-112z m-123 62c-1 0-2 1-2 2l0 24c0 1 1 2 2 2l25 0c1 0 2-1 2-2l0-24c0-1-1-2-2-2z m40 0c-2 0-3 1-3 2l0 24c0 1 1 2 3 2l24 0c2 0 3-1 3-2l0-24c0-1-1-2-3-2z m39 0c-1 0-2 1-2 2l0 24c0 1 1 2 2 2l25 0c1 0 2-1 2-2l0-24c0-1-1-2-2-2z m-79-39c-1 0-2 1-2 2l0 24c0 1 1 2 2 2l25 0c1 0 2-1 2-2l0-24c0-1-1-2-2-2z m40 0c-2 0-3 1-3 2l0 24c0 1 1 2 3 2l24 0c2 0 3-1 3-2l0-24c0-1-1-2-3-2z"/>
<glyph glyph-name="decrease-big" unicode="&#117;" d="M253 286c-1-2-3-5-6-6-11-8-27-6-36 6l-130 186c-3 4-4 9-4 14 0 15 11 26 25 26l260 0c6 0 11-2 15-5 12-8 15-24 6-35z m0-256c-1-2-3-5-6-6-11-8-27-6-36 6l-130 186c-3 4-4 9-4 14 0 15 11 26 25 26l260 0c6 0 11-2 15-5 12-8 15-24 6-35z"/>
<glyph glyph-name="decrease-small" unicode="&#118;" d="M286 116c-2-4-6-7-9-9-17-12-39-8-51 9l-186 265c-4 6-6 14-6 21 0 20 16 37 36 37l372 0c7 0 15-2 21-7 16-11 20-34 9-51z"/>
<glyph glyph-name="dryer" unicode="&#119;" d="M256 512c142 0 256-115 256-256 0-142-115-256-256-256-142 0-256 115-256 256 0 142 115 256 256 256z m-65-136c-13-15-28-33-28-67 0-34 15-52 28-66 10-12 18-21 18-40 0-20-8-28-18-41-7-8-6-21 2-28 8-7 21-6 28 2 13 15 28 33 28 67 0 34-15 52-28 66-10 12-18 21-18 40 0 20 8 28 18 41 7 8 6 21-2 28-8 7-21 6-28-2z m128 2c-8 7-21 6-28-2-13-15-28-33-28-67 0-34 15-52 28-66 10-12 18-21 18-40 0-20-8-28-18-41-7-8-6-21 2-28 8-7 21-6 28 2 13 15 28 33 28 67 0 34-15 52-28 66-10 12-18 21-18 40 0 20 8 28 18 41 7 8 6 21-2 28z"/>
<glyph glyph-name="edit" unicode="&#120;" d="M508 411l-48-48-97 97-36-37 96-96-237-238-97 97-37-37 97-97-23-23-1 0c-3-4-7-7-12-8l-90-21c-1 0-3 0-4 0-5 0-10 2-13 5-5 5-7 12-6 18l21 90c1 5 4 9 8 12l0 1 382 382c6 5 15 5 20 0l77-77c5-5 5-14 0-20z"/>
<glyph glyph-name="entire-home" unicode="&#121;" d="M503 285l-229 220c-10 9-26 9-36 0l-229-220c-8-8-11-20-7-31 4-11 13-18 24-18l37 0 0-220c0-9 7-16 15-16l126 0c8 0 15 7 15 16l0 134 74 0 0-134c0-9 7-16 15-16l126 0c8 0 15 7 15 16l0 220 37 0c11 0 20 7 24 18 4 11 1 23-7 31z"/>
<glyph glyph-name="fav-off" unicode="&#122;" d="M470 438c-26 27-62 42-100 42-38 0-74-15-101-42l-13-13-13 13c-27 27-63 42-101 42-38 0-74-15-100-42-56-55-56-145 0-201l198-199c4-3 8-5 12-6 1 0 3 0 4 0 6 0 11 2 16 6l198 199c56 56 56 146 0 201z m-31-170l-183-183-183 183c-39 39-39 101 0 139 18 19 43 29 69 29 26 0 51-10 70-29l28-29c9-8 23-8 32 0l28 29c19 19 44 29 70 29 26 0 51-10 69-29 39-38 39-100 0-139z"/>
<glyph glyph-name="fav-onn" unicode="&#65;" d="M470 438c-26 27-62 42-100 42-38 0-74-15-101-42l-13-13-13 13c-27 27-63 42-101 42-38 0-74-15-100-42-56-55-56-145 0-201l198-199c4-3 8-5 12-6 1 0 3 0 4 0 6 0 11 2 16 6l198 199c56 56 56 146 0 201z"/>
<glyph glyph-name="filter" unicode="&#66;" d="M261 370c12 33 43 57 80 57 37 0 69-24 81-57l62 0c15 0 28-13 28-29 0-15-13-28-28-28l-62 0c-12-33-44-57-81-57-37 0-68 24-80 57l-233 0c-15 0-28 13-28 28 0 16 13 29 28 29z m80-57c16 0 29 13 29 28 0 16-13 29-29 29-15 0-28-13-28-29 0-15 13-28 28-28z m-90-114l233 0c15 0 28-13 28-28 0-16-13-29-28-29l-233 0c-12-33-43-57-80-57-37 0-69 24-81 57l-62 0c-15 0-28 13-28 29 0 15 13 28 28 28l62 0c12 33 44 57 81 57 37 0 68-24 80-57z m-80-57c15 0 28 13 28 29 0 15-13 28-28 28-16 0-29-13-29-28 0-16 13-29 29-29z"/>
<glyph glyph-name="guests" unicode="&#67;" d="M314 252c123-22 139-56 141-177 0-7 0-9 0-8l0-2 0-7c0 0-29-58-199-58-170 0-199 58-199 58l0 12c0 0 0 1 0 9 2 118 20 152 141 173 0 0 18-22 58-22 40 0 58 22 58 22z m-58 260c90 0 105-56 105-125 0-69-47-125-105-125-58 0-105 56-105 125 0 69 15 125 105 125z"/>
<glyph glyph-name="hamburger" unicode="&#68;" d="M23 454l466 0c13 0 23-11 23-23l0-24c0-13-10-23-23-23l-466 0c-13 0-23 10-23 23l0 24c0 12 10 23 23 23z m140-163l326 0c13 0 23-11 23-23l0-24c0-12-10-23-23-23l-326 0c-13 0-23 11-23 23l0 24c0 12 10 23 23 23z m-140-163l466 0c13 0 23-10 23-23l0-24c0-12-10-23-23-23l-466 0c-13 0-23 11-23 23l0 24c0 13 10 23 23 23z"/>
<glyph glyph-name="heater" unicode="&#69;" d="M501 171l-32 0 0 245c0 18-14 32-32 32-17 0-32-14-32-32l0-11-21 0 0 11c0 18-14 32-32 32-18 0-32-14-32-32l0-11-21 0 0 11c0 18-15 32-32 32-18 0-32-14-32-32l0-11-22 0 0 11c0 18-14 32-32 32-17 0-32-14-32-32l0-11-21 0 0 11c0 18-14 32-32 32-18 0-32-14-32-32l0-11-53 0c-6 0-11-4-11-10l0-43c0-6 5-11 11-11l53 0 0-245c0-18 14-32 32-32 18 0 32 14 32 32l0 11 21 0 0-11c0-18 15-32 32-32 18 0 32 14 32 32l0 11 22 0 0-11c0-18 14-32 32-32 17 0 32 14 32 32l0 11 21 0 0-11c0-18 14-32 32-32 18 0 32 14 32 32l0 11 21 0 0-11c0-18 15-32 32-32 18 0 32 14 32 32l0 11 32 0c6 0 11 4 11 10l0 43c0 6-5 11-11 11z m-352 0l-21 0 0 170 21 0z m86 0l-22 0 0 170 22 0z m85 0l-21 0 0 170 21 0z m85 0l-21 0 0 170 21 0z"/>
<glyph glyph-name="hot" unicode="&#70;" d="M172 1c5-3 11 3 8 8-19 25-36 69-8 125 46 93 75 142 75 142 0 0 15-57 56-107 40-48 61-109 26-160-3-4 3-10 9-7 43 19 91 59 97 138 2 24-1 57-16 100-20 54-44 79-58 90-4 3-10 0-10-5 4-58-20-73-34-40-6 14-9 37-9 65 0 46-15 94-49 133-8 10-18 20-30 28-4 3-10 0-10-5 3-32 0-122-89-230-80-100-49-177-38-198 21-40 51-64 80-77z"/>
<glyph glyph-name="hottub" unicode="&#71;" d="M60 183c2-27 25-48 53-48 2 0 4 0 7 0 19 3 34 15 41 31l2 4 0-10c0-6 1-18 16-27l4-2c6-3 14-5 23-7 15-2 34-4 54-4 21 0 40 2 55 4 9 2 16 4 22 7 18 8 21 21 21 27l0 2 0 10c6-18 23-32 43-35 2 0 5 0 7 0 28 0 50 20 52 47 33-17 52-37 52-56 0-23-25-46-70-64-49-19-114-30-183-30-69 0-134 11-183 30-44 18-70 41-70 64 0 20 20 40 54 57z m154 156c10 0 18-3 27-4l7 0 20 0c16 0 28 5 45 3 15-1 29-5 42-13 19-13 37-29 56-44 33-26 26-59 24-96-1-14-13-25-27-25-1 0-2 0-4 0-12 2-22 12-23 24l0 3 1 21 0 24-2 2-15 7-32 17 0-98c0-10-36-15-73-15-34 0-68 5-72 13l0 2 0 98-50-26 2-45c0-14-10-25-24-27-1 0-2 0-3 0-15 0-27 11-27 25-1 14-4 30-3 46 0 11 3 22 9 32 13 20 34 34 54 48 22 15 40 28 68 28z m-163 141c4 0 9-2 11-5l2-2 30-50c5-8 8-18 8-28 0-27-23-50-51-50-28 0-51 23-51 50 0 8 2 16 6 23l0 1 1 1 31 53c3 4 8 7 13 7z m390-13c11-18 5-38 1-54-4-15-6-25-1-32 5-9 2-20-7-25-3-2-6-3-10-3-6 0-12 3-16 9-13 21-8 43-3 60 3 11 6 21 3 26-6 9-3 20 7 25 9 6 20 3 26-6z m63 0c11-18 6-38 2-54-4-15-6-25-2-32 6-9 3-20-6-25-3-2-7-3-10-3-7 0-13 3-16 9-14 21-8 43-3 60 2 11 5 21 2 26-5 9-2 20 7 25 9 6 21 3 26-6z m-236-18c19 0 35-16 35-34l0-18c0-17-13-31-30-34l-29 0c-16 3-29 17-29 34l0 18c0 18 15 34 34 34z"/>
<glyph glyph-name="increase-big" unicode="&#72;" d="M253 245l130-186c9-11 6-27-6-35-4-3-9-5-15-5l-260 0c-14 0-25 11-25 26 0 5 1 10 4 14l130 186c9 12 25 14 36 6 3-1 5-3 6-6z m0 256l130-186c9-11 6-27-6-35-4-3-9-5-15-5l-260 0c-14 0-25 11-25 26 0 5 1 10 4 14l130 186c9 12 25 14 36 6 3-1 5-3 6-6z"/>
<glyph glyph-name="increase-small" unicode="&#73;" d="M286 396l186-265c11-17 7-40-9-51-6-5-14-7-21-7l-372 0c-20 0-36 17-36 37 0 7 2 15 6 21l186 265c12 17 34 21 51 9 3-2 7-5 9-9z"/>
<glyph glyph-name="info-hover" unicode="&#74;" d="M256 512c141 0 256-115 256-256 0-141-115-256-256-256-141 0-256 115-256 256 0 141 115 256 256 256z m0-109c-17 0-31-14-31-31 0-17 14-31 31-31 17 0 31 14 31 31 0 17-14 31-31 31z m0-108c-13 0-23-11-23-23l0-140c0-13 10-23 23-23 13 0 23 10 23 23l0 140c0 12-10 23-23 23z"/>
<glyph glyph-name="information" unicode="&#75;" d="M256 512c-141 0-256-115-256-256 0-141 115-256 256-256 141 0 256 115 256 256 0 141-115 256-256 256z m0-465c-115 0-209 94-209 209 0 115 94 209 209 209 115 0 209-94 209-209 0-115-94-209-209-209z m0 356c-17 0-31-14-31-31 0-17 14-31 31-31 17 0 31 14 31 31 0 17-14 31-31 31z m0-108c-13 0-23-11-23-23l0-140c0-13 10-23 23-23 13 0 23 10 23 23l0 140c0 12-10 23-23 23z"/>
<glyph glyph-name="kitchen" unicode="&#76;" d="M302 489l0-143c0-7-24-26-40-38l0-42c8-2 14-10 14-19l0-224c0-11-9-20-21-20l-15 0c-11 0-21 9-21 20l0 224c0 9 6 17 15 19l0 42c-18 12-44 30-44 38l0 143c0 11 6 21 19 21l7 0 0-149c0-4 5-7 10-7 6 0 11 3 11 7l0 149 19 0 0-149c0-4 4-7 10-7 6 0 10 3 10 7l0 149 3 0c13 0 23-10 23-21z m-203 20c0 0-56-36-56-132l0-18c0-94 21-136 35-160l0-184c0-8 7-15 15-15l11 0c9 0 16 7 16 15l0 193c0 1 0 3 0 4l0 276c0 11-4 27-21 21z m370-94c0 54-27 97-61 97-34 0-61-43-61-97 0-45 20-84 47-94l0-60c-9-3-15-10-15-19l0-221c0-11 10-21 22-21l14 0c12 0 21 10 21 21l0 221c0 9-6 16-14 19l0 60c27 10 47 49 47 94z"/>
<glyph glyph-name="location" unicode="&#77;" d="M359 145c90-11 153-40 153-72 0-37-88-73-256-73-168 0-256 36-256 73 0 32 63 61 153 72 4 1 9-3 9-7 1-5-3-9-7-10-90-11-138-39-138-55 0-24 91-56 239-56 148 0 239 32 239 56 0 16-48 44-138 55-4 1-8 5-7 10 0 4 5 8 9 7z m-105-100l-131 189c-49 65-41 173 16 230 31 31 72 48 115 48 44 0 85-17 116-48 57-57 65-165 15-230z m2 365c-33 0-60-27-60-60 0-33 27-60 60-60 33 0 60 27 60 60 0 33-27 60-60 60z"/>
<glyph glyph-name="logout" unicode="&#78;" d="M506 309c8-9 8-34 0-43l-84-84c-8-8-37-8-37 9l0 192c0 18 29 18 37 9z m-250 203c35 0 64-29 64-64l0-320c0-35-29-64-64-64l-64 0 0-64-192 128 0 384z m0-384l0 320-160 0 96-64 0-256z"/>
<glyph glyph-name="map" unicode="&#79;" d="M256 512c-106 0-192-85-192-189 0-27 6-52 17-76 48-104 140-212 167-243 2-3 5-4 8-4 3 0 6 1 8 4 27 31 119 139 167 243 11 24 17 49 17 76 0 104-86 189-192 189z m0-286c-55 0-100 44-100 98 0 53 45 97 100 97 55 0 100-44 100-97 0-54-45-98-100-98z"/>
<glyph glyph-name="my-listing" unicode="&#80;" d="M153 246l0 0-98 0c-30 0-55 25-55 56l0 70c0 30 25 55 55 55l242 0c24 0 44-15 51-36-18 9-38 13-59 13-36 0-71-14-97-40-20-20-33-45-38-73-3-15-3-30-1-45z m324 205c23-23 35-53 35-85 0-33-12-63-35-86-23-22-53-35-85-35-32 0-62 13-85 35-6 6-6 16 0 22 6 6 15 6 21 0 17-17 40-27 64-27 24 0 47 10 64 27 17 17 26 40 26 64 0 24-9 47-26 64-17 17-40 26-64 26-17 0-33-5-48-13-9 6-20 11-32 13 22 20 50 30 80 30 32 0 62-12 85-35z m-204-160c0-12 4-23 13-32 26-27 61-42 99-44-5-9-12-18-19-26-16-15-36-26-57-30-18-3-36-2-53 4l-21-22c-2-2-4-3-7-4l-15-4-5-16c-1-5-5-9-10-10l-16-5-4-16c-2-5-6-8-10-10l-17-5-13-26c-2-5-6-8-11-8l-59-11c-1 0-2 0-3 0-4 0-7 1-10 4-4 4-5 8-4 13l10 60c1 3 2 5 4 8l122 122c-6 17-7 35-4 52 4 22 15 42 30 58 42 42 111 42 153 0 10-11 18-24 24-38-15 1-30 7-41 18-8 9-19 13-31 13-12 0-24-4-32-13-9-9-13-20-13-32z"/>
<glyph glyph-name="notifications" unicode="&#81;" d="M58 98c-11 0-20 9-20 20 0 11 9 20 20 20 38 38 60 89 60 142l0 55c0 62 41 115 98 132l0 6c0 21 18 39 40 39 22 0 40-18 40-39l0-6c57-17 98-70 98-132l0-55c0-53 22-104 60-142 11 0 20-9 20-20 0-11-9-20-20-20z m198-98c-33 0-59 26-59 59l118 0c0-33-26-59-59-59z"/>
<glyph glyph-name="password" unicode="&#82;" d="M256 512c-141 0-256-115-256-256 0-141 115-256 256-256 141 0 256 115 256 256 0 141-115 256-256 256z m-70-389c12 50 24 100 36 150-22 11-37 34-37 61 0 38 31 69 69 69 39 0 70-31 70-69 0-27-15-50-38-61 13-50 25-100 37-150 1-6-2-12-8-13-1 0-2-1-3-1l-115 0c-6 0-11 5-11 11 0 1 0 2 0 3z"/>
<glyph glyph-name="pool" unicode="&#83;" d="M350 314c61-9 84-26 114-50 25-19 37-50 38-54 3-8 23-110-4-145-16-19-31-32-56-36l-1-1-322 1c-45 0-77 15-99 41-36 44-14 138-9 149 8 16 31 42 55 56 29 17 43 30 92 38l0-1c-1-2-1-5-1-7 0-2 0-5 1-7 0-9 0-17 0-26-41-6-48-17-71-31-17-10-35-30-39-39-3-6-4-11-4-17 0-30 8-55 53-55 10 0 21 1 30 4 20 5 47 9 70 9 5 0 9 0 14 0 15-2 31-2 46-2 15 0 30 0 44 1 5 1 9 1 13 1 27 0 54-5 69-9 9-3 20-4 30-4 45 0 53 25 53 55 0 4-1 8-2 12-3 8-12 26-25 36-24 19-38 33-89 41 0 12 0 26 0 40z m-49 170c6 0 11-3 15-7 10-11 16-44 18-85 1-2 1-10 1-12 2-54 1-117-1-154 0-8-7-14-15-14 0 0-1 0-1 0-8 0-15 7-15 15 1 24 2 48 2 72l-100 0c0-28-1-54-2-73 0-8-7-14-15-14 0 0-1 0-1 0-8 0-15 7-14 15 1 27 1 55 1 82 0 1 0 8 0 10 0 61-3 114-9 133-6-6-10-24-10-32-1-8-8-14-16-14-9 1-15 8-15 16 1 23 12 62 46 62 6 0 11-3 15-7 10-10 15-40 18-76l100 0c-2 23-4 41-7 51-6-6-10-24-10-32-1-8-8-14-17-14-8 1-14 8-14 16 1 23 12 62 46 62z m3-113l-100 0c1-14 1-28 1-42l100 0c0 14 0 28-1 42z"/>
<glyph glyph-name="price-correction" unicode="&#84;" d="M331 481l150-150c41-41 41-109 0-150l-150-150c-41-41-109-41-150 0l-150 150c-41 41-41 109 0 150l150 150c41 41 109 41 150 0z m-1-262c0 11-3 20-8 27-6 7-13 12-21 16-8 3-18 6-30 9l0 44c13-2 26-6 39-14l13 32c-14 9-31 14-52 15l0 28-26 0 0-28c-19-2-34-9-45-19-10-10-15-22-15-36 0-12 3-21 8-28 6-7 13-12 21-15 9-4 19-7 31-10l0-43c-9 1-18 3-27 6-9 4-16 8-23 12l-14-31c7-5 16-10 28-14 11-4 23-6 36-6l0-28 26 0 0 28c19 3 34 9 44 19 10 10 15 22 15 36z m-104 76c0 4 2 8 5 12 3 3 8 5 14 7l0-36c-6 1-11 4-14 6-3 3-5 7-5 11z m45-97l0 35c6-2 10-4 13-7 3-2 5-6 5-10 0-4-2-8-5-11-3-3-7-5-13-7z"/>
<glyph glyph-name="price-drop" unicode="&#85;" d="M437 437c48-48 75-113 75-181 0-68-27-133-75-181-48-48-113-75-181-75-68 0-133 27-181 75-48 48-75 113-75 181 0 68 27 133 75 181 48 48 113 75 181 75 68 0 133-27 181-75z m-226-54c-25 0-45-20-45-45 0-25 20-45 45-45 25 0 45 20 45 45 0 25-20 45-45 45z m-23-216l157 157-21 21-157-157z m113-38c25 0 45 20 45 45 0 25-20 45-45 45-25 0-45-20-45-45 0-25 20-45 45-45z m0 60c8 0 15-7 15-15 0-8-7-15-15-15-8 0-15 7-15 15 0 8 7 15 15 15z m-90 134c-8 0-15 7-15 15 0 8 7 15 15 15 8 0 15-7 15-15 0-8-7-15-15-15z"/>
<glyph glyph-name="private-room" unicode="&#86;" d="M96 512l320 0c18 0 32-14 32-32l0-448c0-18-14-32-32-32l-320 0c-18 0-32 14-32 32l0 448c0 18 14 32 32 32z m0-32l0-448 320 0 0 448z m32-32l256 0 0-384-256 0z m192-236c18 0 32 14 32 30 0 17-14 30-32 30-18 0-32-13-32-30 0-16 14-30 32-30z"/>
<glyph glyph-name="profile" unicode="&#88;" d="M256 512c-141 0-256-115-256-256 0-141 115-256 256-256 141 0 256 115 256 256 0 141-115 256-256 256z m0-77c47 0 85-37 85-84 0-47-38-85-85-85-47 0-85 38-85 85 0 47 38 84 85 84z m0-368c-47 0-89 17-122 45-8 7-13 17-13 27 0 48 38 86 86 86l98 0c48 0 86-38 86-86 0-10-5-20-13-27-33-28-75-45-122-45z"/>
<glyph glyph-name="property" unicode="&#89;" d="M503 285l-229 220c-10 9-26 9-36 0l-229-220c-8-8-11-20-7-31 4-11 13-18 24-18l37 0 0-220c0-9 7-16 15-16l126 0c8 0 15 7 15 16l0 134 74 0 0-134c0-9 7-16 15-16l126 0c8 0 15 7 15 16l0 220 37 0c11 0 20 7 24 18 4 11 1 23-7 31z"/>
<glyph glyph-name="safe" unicode="&#48;" d="M475 373l0 0c0 5 0 11-1 16 0 29-23 52-51 54-59 3-105 22-144 60l-1 0c-12 12-32 12-44 0l-1 0c-39-38-85-57-144-60-28-2-51-25-51-54-1-5-1-11-1-16l0 0c-1-60-2-135 23-203 13-37 34-70 62-96 31-31 72-55 122-72 1 0 3-1 5-1 2-1 5-1 7-1 2 0 5 0 7 1 2 0 4 1 5 1 50 17 91 41 122 72 27 26 48 59 62 96 25 68 24 143 23 203z"/>
<glyph glyph-name="save" unicode="&#49;" d="M487 448l-39 39c-16 16-38 25-61 25l-328 0c-33 0-59-26-59-59l0-394c0-33 26-59 59-59l394 0c33 0 59 26 59 59l0 328c0 23-9 45-25 61z m-402-69l0 53c0 9 8 16 16 16l224 0c9 0 16-7 16-16l0-53c0-9-7-16-16-16l-224 0c-8 0-16 7-16 16z m171-294c-53 0-96 43-96 96 0 53 43 96 96 96 53 0 96-43 96-96 0-53-43-96-96-96z"/>
<glyph glyph-name="search" unicode="&#50;" d="M488 24c-13-13-34-13-47 0l-100 100c-35-25-77-38-121-38-114 0-206 92-206 206 0 114 92 206 206 206 114 0 206-93 206-206 0-44-14-86-39-121l101-100c13-13 13-34 0-47z m-268 128c77 0 140 63 140 140 0 77-63 139-140 139-77 0-139-62-139-139 0-77 62-140 139-140z"/>
<glyph glyph-name="shared-room" unicode="&#51;" d="M30 413l0-30 272 0 0-81-272 0 0-57c8 4 16 6 25 6l30 0c29 0 52-22 55-50l-110 0 0-30 272 0 0-81-272 0 0-59c0-8-7-15-15-15-8 0-15 7-15 15l0 450c0 8 7 15 15 15 8 0 15-7 15-15l0-24c8 4 16 6 25 6l30 0c29 0 52-22 55-50z m467 24c8 0 15-7 15-16l0-390c0-8-7-15-15-15-8 0-15 7-15 15l0 390c0 9 7 16 15 16z m-60-14c8 0 15-7 15-15l0-323c0-8-7-15-15-15-8 0-15 7-15 15l0 5-60 0 0-5c0-8-7-15-15-15-8 0-15 7-15 15l0 323c0 8 7 15 15 15 8 0 15-7 15-15l0-5 60 0 0 5c0 8 7 15 15 15z m-15-303l0 41-60 0 0-41z m0 71l0 40-60 0 0-40z m0 71l0 40-60 0 0-40z m0 70l0 41-60 0 0-41z"/>
<glyph glyph-name="sleeps" unicode="&#52;" d="M335 353l48-137c4-12-2-25-14-29-12-5-25 1-30 13l-12 31c0 0-1 5-1-10l0-191c0-16-14-30-32-30-17 0-31 14-31 30l0 125c0 0 0 1-1 1l-12 0c-1 0-1-1-1-1l0-125c0-16-14-30-31-30-18 0-32 14-32 30l0 191c0 15 0 11 0 11l-13-32c-5-12-18-18-30-13-12 4-18 17-14 29l48 137c4 11 13 16 25 16l98 0c4 0 4 1 10 1 10 0 21-6 25-17z m-78 32c-37 0-68 28-68 63 0 35 31 64 68 64 37 0 67-29 67-64 0-35-30-63-67-63z"/>
<glyph glyph-name="sorting" unicode="&#53;" d="M51 0l410 0c28 0 51 23 51 51 0 28-23 51-51 51l-410 0c-28 0-51-23-51-51 0-28 23-51 51-51z m0 205l205 0c28 0 51 23 51 51 0 28-23 51-51 51l-205 0c-28 0-51-23-51-51 0-28 23-51 51-51z m0 205c28 0 51 23 51 51 0 28-23 51-51 51-28 0-51-23-51-51 0-28 23-51 51-51z"/>
<glyph glyph-name="sponsored" unicode="&#54;" d="M475 326c-1 0-1 1-1 1 0 1-1 2-1 2-4 13-4 25-1 35l0 0c2 6 3 14 2 22l0 0c-1 1-1 2-1 3l0 0c0 1 0 2-1 3l0 1c0 0 0 1-1 2l0 1-1 2 0 1-1 2c0 0-1 1-1 2l0 0c-2 3-3 6-5 9l-1 1 0 0c-6 8-12 14-19 18-7 4-15 6-21 6l0 0c-1 0-1 0-1 0 0 0 0 0-1 0l0 0c-8 0-17 3-26 8l0 0c-2 1-3 2-4 3-10 7-18 17-21 27l0 1c-2 6-5 12-11 18l0 0c-1 1-1 1-2 2l0 0c-1 1-2 1-3 2l0 0-2 2-1 0-2 2-1 0-1 1c-1 0-1 1-2 1l0 0c-3 2-7 3-10 4l-1 1 0 0c-9 3-18 4-26 3-8-1-15-4-20-8l0 0 0 0c0 0-1 0-1-1 0 0 0 0 0 0l0 0c-7-5-16-9-26-10l0 0c-1 0-3 0-4 0-1 0-3 0-4 0l0 0c-10 1-19 5-26 10l0 0c0 0 0 0 0 0-1 1-1 1-1 1l0 0 0 0c-5 4-12 7-20 8-8 1-17 0-26-3l-1 0 0-1c-4-1-7-2-10-4l0 0c-1 0-1-1-2-1l-1-1-1 0-2-2-1 0-2-2-1 0c0-1-1-1-2-2l0 0c-1-1-1-2-2-2l0 0c-6-6-10-12-11-18l-1-1c-3-10-10-20-20-27-1-1-3-2-4-3l0 0c-9-5-18-8-26-8l0 0c-1 0-1 0-1 0 0 0-1 0-1 0l0 0c-6 0-14-2-21-6-7-4-13-10-19-18l0 0-1-1c-2-3-4-6-5-9l0 0c-1-1-1-2-1-2l-1-2 0-1-1-2 0-1c-1-1-1-2-1-2l0-1c-1-1-1-2-1-3l0 0c0-1-1-2-1-3l0 0 0 0c-1-8-1-16 1-22l1 0c3-10 2-22-1-35-1 0-1-1-1-2 0 0-1-1-1-1-6-18-37-28-37-69 0-38 24-49 33-61 2-4 4-8 5-13 1-2 1-4 2-5l0 0c2-11 2-21-1-29l0 0c0 0 0 0-1-1 0 0 0 0 0 0l0 0c-2-7-2-14-1-22 2-9 6-17 11-25l0 0 1-1c2-3 4-6 6-8l1 0c0-1 1-1 1-2l1-1 1-1 2-1 1-1 2-1 0-1c1 0 2-1 3-1l0 0c1-1 2-1 3-2l0 0c7-4 14-6 20-5l1 0c9 0 20-4 31-12 10-8 17-17 20-27l0 0c0-1 0-1 0-1 0 0 0 0 0-1l0 0c2-6 6-13 12-18 6-6 14-11 23-14 3-1 7-2 10-2l0 0c1 0 2 0 3-1l1 0 1 0 2 0 1 0 3 0 1 0c0 0 1 0 2 0l1 0c1 0 2 0 3 1l0 0c7 1 14 4 19 8l1 0c7 6 19 9 31 10 12-1 24-4 31-10l1 0c5-4 12-7 19-8l0 0c1-1 2-1 3-1l1 0c1 0 1 0 2 0l1 0 2 0 2 0 2 0 1 0 1 0c1 1 2 1 3 1l0 0c3 0 7 1 10 2 9 3 17 8 23 14 6 5 10 12 12 18l0 0c0 1 0 1 0 1 0 0 0 0 0 1l0 0c3 10 10 19 20 27 11 8 22 12 31 12l1 0c6-1 13 1 20 5l0 0c1 0 2 1 3 2l0 0c1 0 2 1 3 1l0 1 2 1 1 1 2 1 1 1 1 1c0 1 1 1 1 2l1 0c2 2 4 5 6 8l1 1 0 0c5 8 9 16 11 25 1 8 1 15-1 22l0 0c0 0 0 0 0 0-1 1-1 1-1 1l0 0c-3 8-3 18-1 29l0 0c1 1 1 3 2 5 1 5 3 9 5 13 9 12 33 23 33 61 0 41-31 51-37 69z m-36-126c-2-7-5-14-8-21-9-24-23-45-41-63-17-18-38-33-60-43-24-10-49-15-74-15-26 0-50 5-74 15-22 10-43 25-61 43-10 11-19 23-27 36l54 0c2-1 4-1 5-1 4 0 8 1 11 1 3 0 6 0 9 0l2 0c2 0 5-1 8-1 2 0 5 0 8-1 3-1 6-4 9-7 1-1 3-3 5-4 2-2 3-3 5-4 5-4 11-8 17-11 8-3 16-5 24-6 4 0 8-1 12-1 2-1 4-1 7-1 6-1 13-2 19-2 5 0 9 1 12 1 13 4 22 15 22 28 6 2 12 8 16 15 3 7 5 14 3 20 13 9 19 25 16 39 6 4 9 10 11 18 2 11-2 23-9 31-9 9-22 11-33 13-2 0-4 0-5 1-2 0-3 1-5 1-15 4-26 7-26 20 0 8 3 16 6 24 3 10 6 20 6 31-1 20-10 38-23 47-5 5-12 7-18 7-10 0-17-5-20-15-2-6-1-12-1-19 0-1 0-3 0-5 1-9-1-16-3-23-5-14-15-27-23-37l-4-6c-6-8-12-16-19-23-4-2-7-3-12-4-2-1-15-1-20-1-3 0-6 0-9 0l-84-1c2 21 6 36 6 36 2 7 5 14 8 21 9 23 23 44 41 63 17 18 38 32 60 42 24 10 48 15 74 15 26 0 50-5 74-15 22-10 43-24 60-42 18-19 32-40 41-63 3-7 6-14 8-21 0 0 7-26 7-56 0-24-5-47-7-56z"/>
<glyph glyph-name="subscription" unicode="&#56;" d="M443 130c1 0 2 0 3 0-8-14-18-27-30-39-43-44-100-68-160-68-60 0-117 24-160 68-39 41-62 93-66 150l-15 0c-6 0-11 3-13 8-3 5-3 11 1 16l54 81c1 1 3 3 4 4 2 1 3 1 4 2 1 0 2 0 2 0 1 0 1 0 2 0 5 0 9-2 12-6l33-49 21-32c3-5 4-11 1-16-2-5-7-8-13-8l-14 0c7-77 71-137 147-137 55 0 103 31 129 78l22-33c8-12 21-19 36-19z m-176 141c21 0 38-17 38-38l0-12c0-20-15-36-34-38l0-8c0-8-7-15-15-15-8 0-15 7-15 15l0 8c-19 2-34 18-34 38 0 9 7 15 15 15 8 0 15-6 15-15 0-4 3-8 8-8l22 0c5 0 8 4 8 8l0 12c0 4-3 8-8 8l-22 0c-21 0-38 17-38 38l0 12c0 20 15 36 34 38l0 8c0 8 7 15 15 15 8 0 15-7 15-15l0-8c19-2 34-18 34-38 0-9-7-15-15-15-8 0-15 6-15 15 0 4-3 8-8 8l-22 0c-5 0-8-4-8-8l0-12c0-4 3-8 8-8z m243-8c3-5 3-11-1-16l-34-51-20-30c-3-4-7-6-12-6-4 0-7 1-10 4-1 0-1 1-2 2l-33 49-21 32c-3 5-4 11-1 16 2 5 7 8 13 8l14 0c-7 77-71 137-147 137-55 0-103-31-129-78l-22 33c-8 12-21 19-36 19-1 0-2 0-3 0 8 14 18 27 30 39 43 44 100 68 160 68 60 0 117-24 160-68 39-41 62-93 66-150l15 0c6 0 11-3 13-8z"/>
<glyph glyph-name="track" unicode="&#57;" d="M128 512l256 0c35 0 64-29 64-64l0-400c0-17-14-32-32-32-7 0-13 2-18 6l-126 87c-9 7-23 7-32 0l-126-87c-14-10-34-6-44 8-4 6-6 12-6 18l0 400c0 35 29 64 64 64z"/>
<glyph glyph-name="track-hov" unicode="&#33;" d="M142 505l228 0c43 0 78-35 78-78l0-355c0-28-22-50-50-50-10 0-20 3-28 9l-112 77c-1 1-3 1-4 0l-112-77c-22-16-53-10-69 12-6 9-9 18-9 29l0 355c0 43 35 78 78 78z m0-43c-19 0-35-16-35-35l0-355c0-2 0-3 1-5 2-3 7-4 10-1l111 77c16 11 38 11 54 0l111-77c1-1 3-2 4-2 4 0 7 4 7 8l0 355c0 19-16 35-35 35z"/>
<glyph glyph-name="tv" unicode="&#34;" d="M475 391l-158 0 56 95c5 8 2 18-6 23-8 5-18 3-23-5l-67-113-42 0-67 113c-5 8-15 10-23 5-8-5-11-15-6-23l56-95-158 0c-20 0-37-17-37-38l0-315c0-21 17-38 37-38l438 0c20 0 37 17 37 38l0 315c0 21-17 38-37 38z m-116-307c0-12-9-21-20-21l-259 0c-11 0-20 9-20 21l0 223c0 11 9 21 20 21l259 0c11 0 20-10 20-21z m75 6c-20 0-35 17-35 36 0 20 15 36 35 36 19 0 35-16 35-36 0-19-16-36-35-36z m0 139c-20 0-35 16-35 35 0 20 15 36 35 36 19 0 35-16 35-36 0-19-16-35-35-35z"/>
<glyph glyph-name="warning" unicode="&#35;" d="M507 77l-222 392c-13 23-45 23-58 0l-222-392c-13-23 3-51 29-51l444 0c26 0 42 28 29 51z m-251 271c15 0 26-12 26-26l-5-149c0-12-9-21-21-21-11 0-21 9-21 21l-4 149c0 14 11 26 25 26z m0-269c-15 0-26 12-26 27 0 15 11 27 26 27 15 0 26-12 26-27 0-15-11-27-26-27z"/>
<glyph glyph-name="washer-copy" unicode="&#36;" d="M422 512c32 0 58-26 58-57l0-398c0-31-26-57-58-57l-332 0c-32 0-58 26-58 57l0 398c0 31 26 57 58 57z m-166-183c-75 0-135-60-135-134 0-75 60-135 135-135 75 0 135 60 135 135 0 74-60 134-135 134z m0-37c54 0 98-44 98-97 0-54-44-98-98-98-54 0-98 44-98 98 0 53 44 97 98 97z m0-30c-37 0-68-30-68-67 0-2 1-4 1-6 12-1 22-6 37-15 10-5 24-8 35-6 22 3 38 4 57 0 3 8 6 17 6 27 0 37-31 67-68 67z m154 136l-308 0c-10 0-18-7-18-17 0-9 8-17 18-17l308 0c10 0 18 8 18 17 0 10-8 17-18 17z m-40 78c-15 0-27-12-27-27 0-15 12-27 27-27 15 0 27 12 27 27 0 15-12 27-27 27z m-86 0c-15 0-27-12-27-27 0-15 12-27 27-27 14 0 26 12 26 27 0 15-12 27-26 27z"/>
<glyph glyph-name="wifi" unicode="&#37;" d="M257 183c33 0 60-26 60-59 0-33-27-60-60-60-33 0-60 27-60 60 0 33 27 59 60 59z m136 91l1-1 1-1 2-2 2-1 1-2 15-15c7-7 10-16 10-26 0-10-3-19-10-26-14-13-35-14-50-3l-3 3-15 14c-45 45-118 47-165 5l-5-5-21-20c-14-15-38-15-53 0-13 13-14 35-3 49l3 4 12 12 9 8c74 74 192 77 269 7z m-359 84c122 117 314 120 440 10 2-2 4-3 6-5l9-10c1 0 1 0 1 0l12-12c13-13 13-35 0-48-13-14-35-14-48 0l-18 17c-99 94-256 93-355-2 0 0 0 0 0 0l-23-23c-13-13-35-13-48 1-13 13-13 35 0 48l22 22c1 1 2 1 2 2z"/>
<glyph glyph-name="1" unicode="&#110;" d="M234 416c0-5 0-10 0-14 1-12 10-22 22-22 12 1 21 10 22 22 0 9 0 18 0 27-1 12-10 21-22 21-12 0-21-9-22-21 0-4 0-9 0-13m182-138c-5 0-10 0-14 0-12-1-22-10-22-22 1-12 10-21 22-22 9 0 18 0 27 0 12 1 21 10 21 22 0 12-9 21-21 22-4 0-9 0-13 0m-320 0c-4 0-9 0-13 0-12 0-22-10-22-22 0-12 10-22 22-22 9 0 17 0 26 0 13 0 22 10 22 22 0 12-10 22-22 22-4 0-9 0-13 0m57 60c8 0 15 5 19 13 4 9 3 17-3 24-7 7-13 13-20 19-9 9-22 9-31 0-8-9-8-21 0-31 6-6 12-12 18-18 4-4 9-7 17-7m103-146c46 0 77 45 60 88-1 3-1 4 1 7 25 24 49 48 74 72 2 2 3 4 5 6 6 8 6 19 0 27-9 11-24 11-34 0-25-24-50-49-75-75-3-2-5-2-8-1-10 5-22 6-33 4-34-6-57-36-54-70 3-33 31-58 64-58m-256 49c0 10 0 20 0 30 0 1 1 3 1 4 2 36 12 70 29 101 40 72 100 116 181 132 10 2 20 3 30 4l30 0c4 0 7-1 11-1 41-5 80-18 114-41 72-49 111-117 116-203 2-46-8-90-30-131-49-92-147-145-252-135-42 5-80 18-115 42-61 40-98 97-111 168-2 10-3 20-4 30"/>
<glyph glyph-name="2" unicode="&#114;" d="M462 461l-412 0c-28 0-50-25-50-56l0-298c0-31 22-56 50-56l412 0c28 0 50 25 50 56l0 298c0 31-22 56-50 56z m-344-317c0-10-9-18-20-18-11 0-19 8-19 18l0 224c0 10 8 18 19 18 11 0 20-8 20-18z m59-18c-11 0-20 8-20 18 0 11 9 19 20 19 11 0 19-8 19-19 0-10-8-18-19-18z m19 93c0-11-8-19-19-19-11 0-20 8-20 19l0 149c0 10 9 18 20 18 11 0 19-8 19-18z m59-93c-11 0-19 8-19 18 0 11 8 19 19 19 11 0 20-8 20-19 0-10-9-18-20-18z m20 93c0-11-9-19-20-19-10 0-19 8-19 19l0 149c0 10 9 18 19 18 11 0 20-8 20-18z m59-93c-11 0-20 8-20 18 0 11 9 19 20 19 11 0 20-8 20-19 0-10-9-18-20-18z m20 93c0-11-9-19-20-19-11 0-20 8-20 19l0 149c0 10 9 18 20 18 11 0 20-8 20-18z m85-75c0-10-8-18-19-18-11 0-20 8-20 18l0 224c0 10 9 18 20 18 11 0 19-8 19-18z"/>
<glyph glyph-name="3" unicode="&#115;" d="M358 512l-204 0c-85 0-154-69-154-154l0-119c0-82 64-149 145-153l0-72c0-8 7-14 15-14 3 0 7 2 10 4l16 16c42 42 98 65 157 65l15 0c85 0 154 69 154 154l0 119c0 85-69 154-154 154z"/>
<glyph glyph-name="4" unicode="&#87;" d="M501 280c10 10 14 25 9 39-4 14-16 24-29 26l-124 19c-6 1-10 4-13 9l-55 118c-6 13-19 21-33 21-14 0-27-8-33-21l-55-118c-3-5-7-8-13-9l-124-19c-13-2-25-12-29-26-5-14-1-29 9-39l90-91c4-4 5-10 4-15l-21-129c-2-11 1-23 8-31 11-14 30-18 46-10l110 61c5 3 11 3 16 0l110-61c6-3 12-4 18-4 10 0 21 5 28 14 7 8 10 20 8 31l-21 129c-1 5 0 11 4 15z"/>
</font>
</defs>
</svg>
