<?xml version="1.0" encoding="UTF-8"?>
<svg width="64px" height="32px" viewBox="0 0 64 32" version="1.1" xmlns="http://www.w3.org/2000/svg" xmlns:xlink="http://www.w3.org/1999/xlink">
    <!-- Generator: Sketch 53 (72520) - https://sketchapp.com -->
    <title>sprite</title>
    <desc>Created with Sketch.</desc>
    <g id="sprite" stroke="none" stroke-width="1" fill="none" fill-rule="evenodd">
        <path d="M63.736996,6.31499909 L60.7637619,9.28826099 L54.7114869,3.23634678 L52.4154582,5.53239699 L58.4677331,11.5847286 L43.623058,26.4282904 L37.5712004,20.3770023 L35.2751717,22.6730525 L41.3270293,28.7249667 L39.8478208,30.204189 L39.8196474,30.1760154 C39.6556155,30.4460653 39.3889072,30.6430723 39.0721129,30.7134021 L33.4284567,31.9718263 C33.3439365,31.9908175 33.2579554,32 33.1730178,32 C32.8649885,32 32.5657242,31.8787488 32.3438847,31.6562812 C32.0592289,31.3726662 31.9406919,30.963 32.0283425,30.5704468 L33.2861288,24.9284074 C33.3570841,24.6118188 33.5545067,24.3444819 33.8241366,24.1808659 L33.7955458,24.1522748 L57.6845123,0.262041415 C58.0346974,-0.0875208557 58.6035916,-0.0875208557 58.9537767,0.263084885 L63.7374133,5.04572284 C64.0875984,5.39591119 64.0875984,5.96481074 63.736996,6.31499909 Z" id="edit" fill="#AFB8C0"></path>
        <path d="M31.5990836,15.6129089 C32.1791595,14.9539299 32.1231443,13.9439122 31.4740142,13.3575545 L17.1728122,0.431826788 C16.5236821,-0.15453087 15.4829669,-0.142247744 14.8475016,0.459517696 L0.497690437,14.0467025 C-0.137774826,14.648468 -0.168963945,15.6571928 0.428636267,16.2988245 L0.788406407,16.6858507 C1.38527644,17.3274824 2.3500529,17.4039826 2.94191599,16.8561983 L4.01434185,15.8641742 L4.01434185,30.3875703 C4.01434185,31.2786357 4.71333278,32 5.57536248,32 L11.1689589,32 C12.0309886,32 12.7299795,31.2786357 12.7299795,30.3875703 L12.7299795,20.2270545 L19.864673,20.2270545 L19.864673,30.3875703 C19.85226,31.2779892 20.4690535,31.9993535 21.3310832,31.9993535 L27.2588934,31.9993535 C28.1209231,31.9993535 28.8199141,31.2779892 28.8199141,30.3869238 L28.8199141,16.0686775 C28.8199141,16.0686775 29.1161585,16.3367513 29.4815615,16.6685035 C29.8463386,16.9996092 30.6125061,16.7341213 31.192582,16.0744958 L31.5990836,15.6129089 Z" id="Path" fill="#FFFFFF"></path>
    </g>
</svg>