<?xml version="1.0" encoding="UTF-8"?>
<svg width="28px" height="19px" viewBox="0 0 28 19" version="1.1" xmlns="http://www.w3.org/2000/svg" xmlns:xlink="http://www.w3.org/1999/xlink">
    <!-- Generator: Sketch 53 (72520) - https://sketchapp.com -->
    <title>Flags/AU</title>
    <desc>Created with Sketch.</desc>
    <defs>
        <rect id="path-1" x="0" y="0" width="28" height="19" rx="2"></rect>
    </defs>
    <g id="Flags/AU" stroke="none" stroke-width="1" fill="none" fill-rule="evenodd">
        <mask id="mask-2" fill="white">
            <use xlink:href="#path-1"></use>
        </mask>
        <rect stroke="#979797" x="0.5" y="0.5" width="27" height="18" rx="2"></rect>
        <g id="130-australia" mask="url(#mask-2)" fill-rule="nonzero">
            <rect id="Rectangle" fill="#0052B4" x="0" y="0.0185" width="28" height="18.9631667"></rect>
            <g id="Group" fill="#F0F0F0">
                <path d="M12.2214187,9.54387619 C12.2487188,9.51299365 12.2757188,9.48200952 12.3027187,9.45082222 C12.2757187,9.48211111 12.2481187,9.51279048 12.2207187,9.54387619 L12.2214187,9.54387619 Z" id="Path"></path>
                <polygon id="Path" points="10.3478047 11.8290556 10.9470703 13.102 12.3004219 12.7843333 11.6943203 14.0539444 12.7826016 14.9306667 11.4276641 15.2409444 11.4314375 16.6519444 10.3478047 15.7691667 9.26422656 16.6519444 9.268 15.2409444 7.9130625 14.9306667 9.00134375 14.0539444 8.39524219 12.7843333 9.74853906 13.102"></polygon>
                <polygon id="Path" points="21.1682188 13.4103889 21.4540703 14.0175556 22.0995469 13.866 21.8104688 14.4715556 22.3295625 14.8897778 21.6832656 15.0377222 21.6850156 15.7107222 21.1682188 15.2897222 20.6514219 15.7107222 20.6531719 15.0377222 20.0069297 14.8897778 20.5259688 14.4715556 20.2369453 13.866 20.8824219 14.0175556"></polygon>
                <polygon id="Path" points="18.5091484 6.96933333 18.795 7.57655556 19.4404766 7.42494444 19.1513984 8.03055556 19.6704375 8.44877778 19.0241953 8.59672222 19.0259453 9.26977778 18.5091484 8.84866667 17.9922969 9.26977778 17.9941016 8.59672222 17.3478047 8.44877778 17.8668438 8.03055556 17.577875 7.42494444 18.2232969 7.57655556"></polygon>
                <polygon id="Path" points="21.1682188 3.28877778 21.4540703 3.896 22.0995469 3.74433333 21.8104687 4.35 22.3295078 4.76816667 21.6832656 4.91616667 21.6850156 5.58916667 21.1682188 5.16805556 20.6514219 5.58916667 20.6531719 4.91616667 20.0069297 4.76816667 20.5259688 4.35 20.2369453 3.74433333 20.8824219 3.896"></polygon>
                <polygon id="Path" points="23.4908516 6.04922222 23.7767031 6.65638889 24.422125 6.50483333 24.1331562 7.11038889 24.6521953 7.52855556 24.0058984 7.67655556 24.0077031 8.34955556 23.4908516 7.92855556 22.9740547 8.34955556 22.9758047 7.67655556 22.3295625 7.52855556 22.8486016 7.11038889 22.5595234 6.50483333 23.205 6.65638889"></polygon>
                <polygon id="Path" points="21.8301016 9.26977778 22.0548672 9.97266667 22.7824297 9.97266667 22.1938281 10.4071111 22.4187031 11.11 21.8301016 10.6756111 21.2413906 11.11 21.4662656 10.4071111 20.8776641 9.97266667 21.6052266 9.97266667"></polygon>
                <polygon id="Path" points="14 0.0185 14 1.71588889 11.5299297 3.11027778 14 3.11027778 14 6.408 10.7678047 6.408 14 8.23216667 14 9.49977778 12.5409375 9.49977778 8.52173437 7.23166667 8.52173437 9.49977778 5.47826563 9.49977778 5.47826563 6.80127778 0.6969375 9.49977778 0 9.49977778 0 7.80238889 2.47007031 6.408 0 6.408 0 3.11027778 3.23219531 3.11027778 0 1.2855 0 0.0185 1.4590625 0.0185 5.47826563 2.28666667 5.47826563 0.0185 8.52173437 0.0185 8.52173437 2.717 13.3030625 0.0185"></polygon>
            </g>
            <polygon id="Path" fill="#D80027" points="7.875 0.0183333333 6.125 0.0183333333 6.125 3.87011111 0 3.87011111 0 5.64788889 6.125 5.64788889 6.125 9.49977778 7.875 9.49977778 7.875 5.64788889 14 5.64788889 14 3.87011111 7.875 3.87011111"></polygon>
            <polygon id="Path" fill="#0052B4" points="8.52173438 6.408 14 9.49977778 14 8.6255 10.0708672 6.408"></polygon>
            <polygon id="Path" fill="#F0F0F0" points="8.52173438 6.408 14 9.49977778 14 8.6255 10.0708672 6.408"></polygon>
            <g id="Group" transform="translate(0.000000, 6.388889)" fill="#D80027">
                <polygon id="Path" points="8.52173437 0.0191111111 14 3.11088889 14 2.23661111 10.0708672 0.0191111111"></polygon>
                <polygon id="Path" points="3.92907813 0.0191111111 0 2.23661111 0 3.11088889 0 3.11088889 5.47826563 0.0191111111"></polygon>
            </g>
            <polygon id="Path" fill="#0052B4" points="5.47826563 3.11011111 0 0.0183333333 0 0.892611111 3.92913281 3.11011111"></polygon>
            <polygon id="Path" fill="#F0F0F0" points="5.47826563 3.11011111 0 0.0183333333 0 0.892611111 3.92913281 3.11011111"></polygon>
            <g id="Group" fill="#D80027">
                <polygon id="Path" points="5.47826563 3.11011111 0 0.0183333333 0 0.892611111 3.92913281 3.11011111"></polygon>
                <polygon id="Path" points="10.0709219 3.11011111 14 0.892611111 14 0.0183333333 14 0.0183333333 8.52173437 3.11011111"></polygon>
            </g>
        </g>
    </g>
</svg>