<?xml version="1.0" encoding="UTF-8"?>
<svg width="28px" height="19px" viewBox="0 0 28 19" version="1.1" xmlns="http://www.w3.org/2000/svg" xmlns:xlink="http://www.w3.org/1999/xlink">
    <!-- Generator: Sketch 53 (72520) - https://sketchapp.com -->
    <title>Flags/MX</title>
    <desc>Created with Sketch.</desc>
    <defs>
        <rect id="path-1" x="0" y="0" width="28" height="19" rx="2"></rect>
    </defs>
    <g id="Flags/MX" stroke="none" stroke-width="1" fill="none" fill-rule="evenodd">
        <mask id="mask-2" fill="white">
            <use xlink:href="#path-1"></use>
        </mask>
        <rect stroke="#979797" x="0.5" y="0.5" width="27" height="18" rx="2"></rect>
        <g id="239-mexico" mask="url(#mask-2)" fill-rule="nonzero">
            <polygon id="Path" fill="#D80027" points="18.6667031 0.0183333333 9.33329688 0.0183333333 0 0.0183333333 0 18.9812222 9.33329688 18.9812222 18.6667031 18.9812222 28 18.9812222 28 0.0183333333"></polygon>
            <rect id="Rectangle" fill="#6DA544" x="0" y="0.0185" width="9.33313281" height="18.9631667"></rect>
            <rect id="Rectangle" fill="#F0F0F0" x="9.33313281" y="0.0185" width="9.33313281" height="18.9631667"></rect>
            <path d="M11.375,9.49977778 C11.375,10.9725 12.5502891,12.1664444 14,12.1664444 C15.4497109,12.1664444 16.625,10.9725 16.625,9.49977778 L16.625,8.61088889 L11.375,8.61088889 L11.375,9.49977778 Z" id="Path" fill="#6DA544"></path>
            <path d="M17.5,7.722 L14.875,7.722 C14.875,7.23111111 14.4832188,6.83311111 14,6.83311111 C13.5167812,6.83311111 13.125,7.23111111 13.125,7.722 L10.5,7.722 C10.5,8.21288889 10.9209297,8.61088889 11.4041484,8.61088889 L11.375,8.61088889 C11.375,9.10177778 11.7667812,9.49977778 12.25,9.49977778 C12.25,9.99066667 12.6417812,10.3886667 13.125,10.3886667 L14.875,10.3886667 C15.3582188,10.3886667 15.75,9.99066667 15.75,9.49977778 C16.2332187,9.49977778 16.625,9.10177778 16.625,8.61088889 L16.5958516,8.61088889 C17.0790703,8.61088889 17.5,8.21294444 17.5,7.722 Z" id="Path" fill="#FF9811"></path>
        </g>
    </g>
</svg>