<?xml version="1.0" encoding="UTF-8"?>
<svg width="28px" height="19px" viewBox="0 0 28 19" version="1.1" xmlns="http://www.w3.org/2000/svg" xmlns:xlink="http://www.w3.org/1999/xlink">
    <!-- Generator: Sketch 53 (72520) - https://sketchapp.com -->
    <title>Flags/US</title>
    <desc>Created with Sketch.</desc>
    <defs>
        <rect id="path-1" x="0" y="0" width="28" height="19" rx="2"></rect>
    </defs>
    <g id="Flags/US" stroke="none" stroke-width="1" fill="none" fill-rule="evenodd">
        <g id="Group-2">
            <mask id="mask-2" fill="white">
                <use xlink:href="#path-1"></use>
            </mask>
            <rect stroke="#979797" x="0.5" y="0.5" width="27" height="18" rx="2"></rect>
            <g id="153-united-states-of-america" mask="url(#mask-2)" fill-rule="nonzero">
                <rect id="Rectangle" fill="#F0F0F0" x="0" y="0.0183888889" width="28" height="18.9631667"></rect>
                <g id="Group" transform="translate(0.000000, 2.333333)" fill="#D80027">
                    <rect id="Rectangle" x="0" y="0.0552222222" width="28" height="2.37016667"></rect>
                    <rect id="Rectangle" x="0" y="4.79616667" width="28" height="2.37016667"></rect>
                    <rect id="Rectangle" x="0" y="9.5365" width="28" height="2.37016667"></rect>
                    <rect id="Rectangle" x="0" y="14.2774444" width="28" height="2.37016667"></rect>
                </g>
                <rect id="Rectangle" fill="#2E52B2" x="0" y="0.0183888889" width="14" height="10.2109444"></rect>
                <g id="Group" transform="translate(1.421875, 1.611111)" fill="#F0F0F0">
                    <polygon id="Path" points="4.03714063 2.59022222 3.81166406 3.29488889 3.08235156 3.29488889 3.67248437 3.73016667 3.44700781 4.43477778 4.03714063 3.9995 4.62689062 4.43477778 4.40146875 3.73016667 4.99160156 3.29488889 4.26223438 3.29488889"></polygon>
                    <polygon id="Path" points="4.26223438 5.83777778 4.03714063 5.13316667 3.81166406 5.83777778 3.08235156 5.83777778 3.67248437 6.27311111 3.44700781 6.97772222 4.03714063 6.54238889 4.62689062 6.97772222 4.40146875 6.27311111 4.99160156 5.83777778"></polygon>
                    <polygon id="Path" points="1.17999219 5.83777778 0.95484375 5.13316667 0.729367188 5.83777778 5.46875e-05 5.83777778 0.5901875 6.27311111 0.364710937 6.97772222 0.95484375 6.54238889 1.54464844 6.97772222 1.31922656 6.27311111 1.90925 5.83777778"></polygon>
                    <polygon id="Path" points="0.95484375 2.59022222 0.729367188 3.29488889 5.46875e-05 3.29488889 0.5901875 3.73016667 0.364710937 4.43477778 0.95484375 3.9995 1.54464844 4.43477778 1.31922656 3.73016667 1.90925 3.29488889 1.17999219 3.29488889"></polygon>
                    <polygon id="Path" points="4.03714063 0.0472222222 3.81166406 0.751944444 3.08235156 0.751944444 3.67248437 1.18727778 3.44700781 1.89188889 4.03714063 1.45655556 4.62689062 1.89188889 4.40146875 1.18727778 4.99160156 0.751944444 4.26223438 0.751944444"></polygon>
                    <polygon id="Path" points="0.95484375 0.0472222222 0.729367188 0.751944444 5.46875e-05 0.751944444 0.5901875 1.18727778 0.364710937 1.89188889 0.95484375 1.45655556 1.54464844 1.89188889 1.31922656 1.18727778 1.90925 0.751944444 1.17999219 0.751944444"></polygon>
                    <polygon id="Path" points="7.11938281 2.59022222 6.89396094 3.29488889 6.16464844 3.29488889 6.75472656 3.73016667 6.52935937 4.43477778 7.11938281 3.9995 7.70924219 4.43477778 7.48376562 3.73016667 8.07389844 3.29488889 7.34458594 3.29488889"></polygon>
                    <polygon id="Path" points="7.34458594 5.83777778 7.11938281 5.13316667 6.89396094 5.83777778 6.16464844 5.83777778 6.75472656 6.27311111 6.52935937 6.97772222 7.11938281 6.54238889 7.70924219 6.97772222 7.48376562 6.27311111 8.07389844 5.83777778"></polygon>
                    <polygon id="Path" points="10.4268828 5.83777778 10.2017344 5.13316667 9.97625781 5.83777778 9.247 5.83777778 9.83702344 6.27311111 9.61160156 6.97772222 10.2017344 6.54238889 10.7915391 6.97772222 10.5660625 6.27311111 11.1561953 5.83777778"></polygon>
                    <polygon id="Path" points="10.2017344 2.59022222 9.97625781 3.29488889 9.247 3.29488889 9.83702344 3.73016667 9.61160156 4.43477778 10.2017344 3.9995 10.7915391 4.43477778 10.5660625 3.73016667 11.1561953 3.29488889 10.4268828 3.29488889"></polygon>
                    <polygon id="Path" points="7.11938281 0.0472222222 6.89396094 0.751944444 6.16464844 0.751944444 6.75472656 1.18727778 6.52935937 1.89188889 7.11938281 1.45655556 7.70924219 1.89188889 7.48376562 1.18727778 8.07389844 0.751944444 7.34458594 0.751944444"></polygon>
                    <polygon id="Path" points="10.2017344 0.0472222222 9.97625781 0.751944444 9.247 0.751944444 9.83702344 1.18727778 9.61160156 1.89188889 10.2017344 1.45655556 10.7915391 1.89188889 10.5660625 1.18727778 11.1561953 0.751944444 10.4268828 0.751944444"></polygon>
                </g>
            </g>
        </g>
    </g>
</svg>