<svg viewBox="0 0 200 200" xmlns="http://www.w3.org/2000/svg">
  <g id="mainGroup" stroke="none" stroke-width="1" fill="none" fill-rule="evenodd">
    <path d="M84.8240045 142.586863c20.6397115-7.541188 34.2500075-11.248423 38.7097535-38.077243 4.459747-26.8288203-14.214927-39.5526345-38.7097535-47.0938225-24.4948262-7.5411881-44.9244087 11.0898438-58.4017313 36.1039747-13.4773225 25.0141308 37.76202 56.6082788 58.4017313 49.0670908z" id="idle" fill="#1D6FDC" opacity=".1" transform="translate(74.194965, 99.721512) rotate(-145.000000) translate(-74.194965, -99.721512)"/>
    <path d="M78.2781112 141.940296c20.6397113-7.541188 34.0185078-25.878608 38.4782548-52.707428S90.018528 44.0210741 73.9557427 40.4965c-16.0627852-3.524574-49.2471871-3.0672613-62.7245097 21.9468696-13.47732261 25.0141309 46.4071669 87.0381144 67.0468782 79.4969264z" id="hover" fill="#1D6FDC" opacity=".1" transform="translate(74.194965, 99.721512) rotate(-145.000000) translate(-74.194965, -99.721512)"/>
    <path d="M138.71 87.7336339c.807812.5030543 1.29 1.3717106 1.29 2.3237141v15.841131c0 .647857-.524687 1.172803-1.171875 1.172803s-1.171875-.524946-1.171875-1.172803V91.4653373l-36.975781 26.3908867c-.203594.145272-.442032.217985-.680469.217985-.2384375 0-.476875-.072713-.6804687-.217985L62.34375 91.4653373v45.7981217c0 .21564.1753125.390935.390625.390935h28.0060938c.6471874 0 1.171875.524946 1.171875 1.172803 0 .647856-.5246876 1.172803-1.171875 1.172803H62.734375C61.2267188 140 60 138.77231 60 137.263459V90.057348c0-.9520035.4821875-1.8206598 1.2896875-2.3237141l9.4640625-5.8916943-.7035937-.704151c-1.0973438-1.0983693-1.0973438-2.8854087 0-3.9836216L80.1625 67.0338135c1.0975-1.0979002 2.8829687-1.0979002 3.9803125 0l3.9873437 3.990502 6.3770313-3.9698607.671875-5.015532c.0834375-.6223676.4040625-1.1749924.9028125-1.5562317.49875-.3810828 1.1160938-.5448062 1.7376562-.4614589l10.1590628 1.3629537c.621875.0833472 1.174062.4042261 1.555.9033712.380781.4989887.544687 1.1168214.46125 1.739189l-.720938 5.3817594 10.199063 6.3492438 2.303437-2.305262c.915938-.9165066 2.40625-.9165066 3.322188 0l7.247656 7.2535533c.44375.4441015.688125 1.0344125.688125 1.6624095 0 .5529376-.189844 1.076477-.538125 1.496966l6.21375 3.8682178zm-8.020937-5.3614308l-6.586563-6.5985037-2.042969 8.8305827c-.200781.8684999-.89125 1.5593592-1.758906 1.7601431l-8.823906 2.0447433 6.58625 6.5914668 12.626094-12.6284322zm-9.319376-5.1887942l-8.491874 8.4934409 6.894375-1.5976708 1.597499-6.8957701zm-16.074843 4.2371034l2.377031-17.7054191-9.23625-1.2441097 3.731094 8.259193c.366875.8122053.237031 1.7804716-.330469 2.4671088l-5.2220313 6.3175.8551563.8556772 7.825469 1.0500498zm-6.9350003 3.1585937L84.2178125 70.4257168l2.5925 11.2062129c.0401562.1738876.1785937.3122784.3523437.3526228l11.1971875 2.5945535zm-1.2415625-19.3282661l-1.5990625 11.9091129 4.5112503-5.457757-2.9121878-6.4513559zM94.10375 70.06809l-4.2717188 2.6592922 3.4526563 3.455391.8190625-6.1146832zM77.9310938 89.0244993l-5.4754688-5.4796494-9.1721875 5.7101443 26.45875 18.8844778 10.195-10.2030757c.9764065-.9770232 2.5653125-.9770232 3.5417185 0l8.204063 8.2105607c.19125.191402.345781.40923.464375.643947l24.569062-17.5360662-5.912344-3.6807256-11.07625 11.0850232c-.443593.4439451-1.033593.6885137-1.661093.6885137s-1.2175-.2445686-1.661094-.6885137l-7.247656-7.2535533c-.915938-.9168194-.915938-2.4083123 0-3.3249753l8.613281-8.6201036-8.838906-5.5026363-1.308594 9.7692944c-.158125 1.1793709-1.169063 2.0389575-2.326719 2.0389575-.103594 0-.208125-.0068805-.313594-.0211105l-4.783281-.6417579 1.548906 1.5501331c1.097344 1.0983693 1.097344 2.8854086 0 3.9836216L91.6367188 98.7573586c-.5485938.5490282-1.2693751.8236206-1.9901563.8236206-.720625 0-1.4414063-.2745924-1.99-.8236206l-5.91125-5.9157758c-.4576563-.4580188-.4576563-1.2004814 0-1.6586565.4575-.4578624 1.1995313-.4578624 1.6571875 0l5.91125 5.9157758c.1834375.1837391.481875.1838955.665625 0l9.7801562-9.7877465-13.1254687-3.0414697c-1.0392188-.2406592-1.86625-1.0685019-2.1070313-2.1085438L81.4879687 69.025077l-9.7801562 9.7877465c-.1198437.120095-.1378125.2602059-.1378125.3330761s.0178125.2129811.1378125.3330761l7.8804687 7.8868671c.4576563.4580187.4576563 1.2004813 0 1.6586565-.4575.4578623-1.1995312.4578623-1.6571874 0zm13.7459374 20.4959087l1.9642188 1.401891 3.9526563-.915881c.0593749-.013761.1065624-.060986.1203125-.120408l1.9292187-8.338474-7.9664063 7.972872zM100 115.460891l9.077969-6.478721.947968-.94872c.038907-.038937.047032-.083347.047032-.11384 0-.030493-.008125-.074747-.047032-.113684l-7.652656-7.658717-2.3756247 10.268126c-.2140626.925733-.9501563 1.662253-1.875 1.876485l-1.9346875.448324L100 115.460891zm38.828125-5.336724c.647187 0 1.171875.524947 1.171875 1.172804v25.966488C140 138.77231 138.773281 140 137.265625 140H96.1345312c-.6471875 0-1.171875-.524947-1.171875-1.172803 0-.647857.5246875-1.172803 1.171875-1.172803h41.1310938c.215312 0 .390625-.175295.390625-.390935v-25.966488c0-.647857.524687-1.172804 1.171875-1.172804zm-6.965625 16.291175h-4.84375c-.647188 0-1.171875-.524947-1.171875-1.172803 0-.647857.524687-1.172803 1.171875-1.172803h4.84375c.647187 0 1.171875.524946 1.171875 1.172803 0 .647856-.524688 1.172803-1.171875 1.172803zm-17.331094 3.714815c0-.6477.524688-1.172803 1.171875-1.172803H131.8625c.647188 0 1.171875.524947 1.171875 1.172803 0 .647857-.524687 1.172803-1.171875 1.172803h-16.159219c-.647187 0-1.171875-.524946-1.171875-1.172803zm-36.3829685-15.235808c.8284375 0 1.590625.41611 2.0390625 1.113068l8.010625 12.452981c.480625.746998.5151562 1.695874.0898438 2.476022-.4251563.779993-1.2409375 1.264751-2.1289063 1.264751H70.1376562c-.8879687 0-1.7035937-.484758-2.1289062-1.264907-.4251562-.779992-.3907812-1.728868.09-2.476022l8.010625-12.452668v-.000157c.4484375-.696958 1.210625-1.113068 2.0390625-1.113068zm8.0820313 14.918682c.0231249-.042533.0073437-.066928-.0029688-.083034l-8.010625-12.452825c-.0084375-.012979-.0240625-.037217-.0684375-.037217s-.06.024238-.0684375.037374v-.000157l-8.010625 12.452825c-.0104687.016263-.02625.040657-.003125.083034.023125.042378.0521875.042378.0714063.042378h16.0214062c.0192187 0 .0482813 0 .0714063-.042378zm-9.2539063-8.037611c0-.6477.5246875-1.172803 1.171875-1.172803s1.171875.524946 1.171875 1.172803v2.041303c0 .647857-.5246875 1.172803-1.171875 1.172803s-1.171875-.524946-1.171875-1.172803v-2.041303zm1.1929687 4.285892c.6471875.008288 1.165.540271 1.1564063 1.187971-.0084375.642384-.5315625 1.157479-1.1715625 1.157479-.0053125 0-.0103125 0-.015625-.000156-.6470313-.008445-1.170625-.540584-1.1621875-1.188128.0084375-.647544.5364062-1.166392 1.18125-1.157322l.0117187.000156z" id="icon" fill="#1D6FDC"/>
  </g>
</svg>