<?xml version="1.0" encoding="UTF-8"?>
<svg width="200px" height="200px" viewBox="0 0 200 200" version="1.1" xmlns="http://www.w3.org/2000/svg" xmlns:xlink="http://www.w3.org/1999/xlink">
    <!-- Generator: Sketch 53 (72520) - https://sketchapp.com -->
    <title>2</title>
    <desc>Created with Sketch.</desc>
    <g id="mainGroup" stroke="none" stroke-width="1" fill="none" fill-rule="evenodd">
        <path d="M67.633221,144.074792 C84.8638989,136.105127 109.601386,135.989282 113.324523,107.636097 C117.047659,79.2829125 101.457455,65.8361544 81.0084067,57.8664897 C60.5593581,49.896825 43.5041023,69.5864383 32.252811,96.0218266 C21.0015197,122.457215 50.4025431,152.044457 67.633221,144.074792 Z" id="idle" fill="#1D6FDC" opacity="0.100000001" transform="translate(71.815318, 100.736246) rotate(-56.000000) translate(-71.815318, -100.736246) "></path>
        <path d="M40.9946581,162.488157 C60.1904558,165.649114 107.384922,159.657943 111.108058,131.304758 C114.831195,102.951573 97.3995343,88.6337389 76.9504857,80.6640743 C56.5014371,72.6944096 35.4367966,78.6234665 24.1855053,105.058855 C12.934214,131.494243 21.7988605,159.327199 40.9946581,162.488157 Z" id="hover" fill="#1D6FDC" opacity="0.100000001" transform="translate(71.815318, 100.736246) rotate(-56.000000) translate(-71.815318, -100.736246) "></path>
        <path d="M134.786356,67.9866889 C137.724391,67.9866889 140.128238,70.3826955 139.994691,73.3111481 L139.994691,104.0599 C139.994691,118.702163 125.97225,118.702163 121.298102,118.702163 C120.49682,118.702163 119.962632,118.169717 119.962632,117.371048 C119.962632,116.572379 120.49682,116.039933 121.298102,116.039933 C121.431649,116.039933 121.698744,116.039933 121.832291,116.039933 C124.770326,115.77371 126.907079,113.111481 126.639985,110.183028 C126.239344,107.387687 123.835497,105.391015 121.031008,105.391015 L112.083355,105.391015 C113.018184,106.988353 113.418826,108.851913 113.418826,110.715474 C113.418826,110.848586 113.418826,111.381032 113.418826,111.647255 C113.552373,117.104825 110.48079,122.163062 105.406002,124.292845 C105.406002,125.091514 105.806643,126.688852 109.412414,126.688852 C113.151731,126.688852 116.089767,129.617304 116.089767,133.344426 L116.089767,140 L113.418826,140 L113.418826,133.344426 C113.418826,131.214642 111.816261,129.484193 109.679508,129.351082 L103.135702,132.545757 C102.601513,132.81198 102.067325,132.945092 101.39959,133.078203 L101.39959,139.866889 L98.7286486,139.866889 L98.7286486,133.078203 C98.1944603,132.945092 97.526725,132.678869 96.9925367,132.412646 L90.4487306,129.21797 C88.3119776,129.351082 86.7094128,131.081531 86.7094128,133.211314 L86.7094128,139.866889 L84.0384715,139.866889 L84.0384715,133.211314 C84.0384715,129.484193 86.9765069,126.55574 90.7158247,126.55574 C94.3215954,126.55574 94.7222366,124.958403 94.7222366,124.159734 C89.9145423,122.02995 86.7094128,117.237937 86.7094128,111.913478 C86.7094128,110.582363 86.8429599,109.384359 87.243601,108.053245 C85.2403951,105.923461 84.0384715,102.995008 84.0384715,99.9334443 C84.0384715,99.1347754 84.5726598,98.6023295 85.3739422,98.6023295 L97.3931779,98.6023295 L97.3931779,95.9400998 L78.9636831,95.9400998 C76.1591947,95.9400998 73.7553476,97.936772 73.3547064,100.732113 C73.3547064,100.865225 73.3547064,101.131448 73.3547064,101.264559 C73.3547064,104.193012 75.7585535,106.589018 78.696589,106.589018 C79.4978713,106.589018 80.0320596,107.121464 80.0320596,107.920133 C80.0320596,108.718802 79.4978713,109.251248 78.696589,109.251248 C74.0224417,109.251248 60,109.251248 60,94.608985 L60,65.3244592 C60,62.3960067 62.4038472,60 65.3418826,60 L102.73506,60 C105.673096,60 108.076943,62.3960067 108.076943,65.3244592 L108.076943,67.9866889 L134.786356,67.9866889 Z M78.9636831,93.2778702 L102.73506,93.2778702 C104.204078,93.2778702 105.406002,92.0798669 105.406002,90.6156406 L105.406002,65.3244592 C105.406002,63.8602329 104.204078,62.6622296 102.73506,62.6622296 L65.3418826,62.6622296 C63.8728649,62.6622296 62.6709413,63.8602329 62.6709413,65.3244592 L62.6709413,94.608985 C62.6709413,101.131448 65.7425238,104.725458 72.2863299,106.056572 C71.0844063,104.459235 70.5502181,102.462562 70.6837651,100.46589 C71.2179534,96.3394343 74.8237241,93.2778702 78.9636831,93.2778702 Z M86.8429599,101.264559 C87.5106952,105.790349 91.38356,109.251248 96.0577073,109.251248 L110.614337,109.251248 C109.946602,104.725458 106.073737,101.264559 101.39959,101.264559 L86.8429599,101.264559 Z M103.66989,121.896839 C107.943396,120.432612 110.747884,116.439268 110.747884,111.913478 L96.0577073,111.913478 C93.6538601,111.913478 91.38356,111.24792 89.5139011,110.049917 C89.3803541,110.582363 89.3803541,111.24792 89.3803541,111.913478 C89.3803541,116.439268 92.1848424,120.432612 96.4583485,122.02995 C96.9925367,122.163062 97.3931779,122.695507 97.3931779,123.227953 L97.3931779,123.893511 C97.526725,125.757072 96.4583485,127.620632 94.7222366,128.419301 L98.0609132,130.14975 C99.2628368,130.682196 100.731855,130.682196 101.933778,130.14975 L105.406002,128.419301 C103.66989,127.620632 102.601513,125.757072 102.73506,123.893511 L102.73506,123.094842 C102.73506,122.562396 103.135702,122.02995 103.66989,121.896839 Z M137.457297,103.926789 L137.457297,73.3111481 C137.457297,71.8469218 136.255374,70.6489185 134.786356,70.6489185 L108.076943,70.6489185 L108.076943,90.6156406 C108.076943,93.5440932 105.673096,95.9400998 102.73506,95.9400998 L100.064119,95.9400998 L100.064119,98.6023295 L101.39959,98.6023295 C104.871813,98.6023295 108.076943,100.066556 110.347243,102.595674 L121.164555,102.595674 C125.438061,102.595674 128.910285,105.657238 129.444473,109.783694 C129.57802,111.780366 129.043832,113.777038 127.841908,115.374376 C134.385715,114.043261 137.457297,110.449251 137.457297,103.926789 Z M90.7158247,74.6422629 C92.9861248,74.6422629 94.7222366,76.3727121 94.7222366,78.6356073 L94.7222366,85.2911814 C94.7222366,87.5540765 92.9861248,89.2845258 90.7158247,89.2845258 L78.696589,89.2845258 C78.696589,90.0831947 78.1624007,90.6156406 77.3611183,90.6156406 L72.0192358,90.6156406 C71.2179534,90.6156406 70.6837651,90.0831947 70.6837651,89.2845258 L70.6837651,74.6422629 C70.6837651,73.843594 71.2179534,73.3111481 72.0192358,73.3111481 L77.3611183,73.3111481 C78.1624007,73.3111481 78.696589,73.843594 78.696589,74.6422629 C79.4978713,74.6422629 80.0320596,74.109817 80.0320596,73.3111481 L80.0320596,69.3178037 C80.0320596,67.0549085 81.7681714,65.3244592 84.0384715,65.3244592 C86.3087716,65.3244592 88.0448834,67.0549085 88.0448834,69.3178037 L88.0448834,73.3111481 C88.0448834,74.109817 88.5790717,74.6422629 89.3803541,74.6422629 L90.7158247,74.6422629 Z M76.0256477,87.953411 L76.0256477,75.9733777 L73.3547064,75.9733777 L73.3547064,87.953411 L76.0256477,87.953411 Z M92.0512954,85.2911814 L92.0512954,78.6356073 C92.0512954,77.8369384 91.5171071,77.3044925 90.7158247,77.3044925 L89.3803541,77.3044925 C87.110054,77.3044925 85.3739422,75.5740433 85.3739422,73.3111481 L85.3739422,69.3178037 C85.3739422,68.5191348 84.8397539,67.9866889 84.0384715,67.9866889 C83.2371891,67.9866889 82.7030009,68.5191348 82.7030009,69.3178037 L82.7030009,73.3111481 C82.7030009,75.5740433 80.966889,77.3044925 78.696589,77.3044925 L78.696589,86.6222962 L90.7158247,86.6222962 C91.5171071,86.6222962 92.0512954,86.0898502 92.0512954,85.2911814 Z M133.450885,73.3111481 C134.252168,73.3111481 134.786356,73.843594 134.786356,74.6422629 L134.786356,89.2845258 C134.786356,90.0831947 134.252168,90.6156406 133.450885,90.6156406 L128.109003,90.6156406 C127.30772,90.6156406 126.773532,90.0831947 126.773532,89.2845258 C125.97225,89.2845258 125.438061,89.8169717 125.438061,90.6156406 L125.438061,94.608985 C125.438061,96.8718802 123.70195,98.6023295 121.431649,98.6023295 C119.161349,98.6023295 117.425238,96.8718802 117.425238,94.608985 L117.425238,90.6156406 C117.425238,89.8169717 116.891049,89.2845258 116.089767,89.2845258 L114.754296,89.2845258 C112.483996,89.2845258 110.747884,87.5540765 110.747884,85.2911814 L110.747884,78.6356073 C110.747884,76.3727121 112.483996,74.6422629 114.754296,74.6422629 L126.773532,74.6422629 C126.773532,73.843594 127.30772,73.3111481 128.109003,73.3111481 L133.450885,73.3111481 Z M126.773532,86.6222962 L126.773532,77.3044925 L114.754296,77.3044925 C113.953014,77.3044925 113.418826,77.8369384 113.418826,78.6356073 L113.418826,85.2911814 C113.418826,86.0898502 113.953014,86.6222962 114.754296,86.6222962 L116.089767,86.6222962 C118.360067,86.6222962 120.096179,88.3527454 120.096179,90.6156406 L120.096179,94.608985 C120.096179,95.4076539 120.630367,95.9400998 121.431649,95.9400998 C122.232932,95.9400998 122.76712,95.4076539 122.76712,94.608985 L122.76712,90.6156406 C122.76712,88.3527454 124.503232,86.6222962 126.773532,86.6222962 Z M132.115415,87.953411 L132.115415,75.9733777 L129.444473,75.9733777 L129.444473,87.953411 L132.115415,87.953411 Z M109.412414,94.608985 L114.754296,94.608985 L114.754296,97.2712146 L109.412414,97.2712146 L109.412414,94.608985 Z M96.0577073,66.655574 L97.3931779,66.655574 L97.3931779,69.3178037 L96.0577073,69.3178037 L96.0577073,70.6489185 L93.386766,70.6489185 L93.386766,69.3178037 L92.0512954,69.3178037 L92.0512954,66.655574 L93.386766,66.655574 L93.386766,65.3244592 L96.0577073,65.3244592 L96.0577073,66.655574 Z" id="icon" fill="#1D6FDC"></path>
    </g>
</svg>