<?xml version="1.0" encoding="UTF-8"?>
<svg width="200px" height="200px" viewBox="0 0 200 200" version="1.1" xmlns="http://www.w3.org/2000/svg" xmlns:xlink="http://www.w3.org/1999/xlink">
    <!-- Generator: Sketch 53 (72520) - https://sketchapp.com -->
    <title>3</title>
    <desc>Created with Sketch.</desc>
    <g id="mainGroup" stroke="none" stroke-width="1" fill="none" fill-rule="evenodd">
        <path d="M91.9831605,152.909703 C110.360441,144.409703 122.478838,140.231118 126.449728,109.991191 C130.420618,79.7512653 113.792976,65.4097028 91.9831605,56.9097028 C70.1733454,48.4097028 51.9831605,69.4095466 39.9831605,97.6040579 C27.9831605,125.798569 73.6058802,161.409703 91.9831605,152.909703 Z" id="idle" fill="#1D6FDC" opacity="0.100000001"></path>
        <path d="M90.2127678,138.186356 C110.963026,138.186356 136.02911,145.614302 140,115.374376 C143.97089,85.1344499 138.087799,58.5 116.277984,50 C94.4681691,41.5 44,60.0750395 32,88.2695507 C20,116.464062 69.4625096,138.186356 90.2127678,138.186356 Z" id="hover" fill="#1D6FDC" opacity="0.100000001"></path>
        <path d="M125.469134,137.936094 C125.630857,138.413125 125.552574,138.938594 125.259128,139.347969 C124.965683,139.757187 124.493013,140 123.98925,140 L76.0109065,140 C75.5071428,140 75.0344736,139.757187 74.7410281,139.347969 C74.4475826,138.938594 74.3692992,138.413125 74.5310223,137.936094 L78.448942,126.373906 C78.6637916,125.739531 79.2591204,125.312812 79.9288262,125.312812 L80.1561761,125.312812 L80.1561761,102.655 C80.1561761,91.7132812 89.0579821,82.8117187 100,82.8117187 C110.942018,82.8117187 119.843824,91.7134375 119.843824,102.655 L119.843824,125.312812 L120.071174,125.312812 C120.74088,125.312812 121.336208,125.739531 121.551058,126.373906 L125.469134,137.936094 Z M83.2812616,102.655156 L83.2812616,125.312969 L116.718738,125.312969 L116.718738,102.655156 C116.718738,93.4367187 109.21869,85.936875 100,85.936875 C90.7813104,85.936875 83.2812616,93.4367187 83.2812616,102.655156 Z M78.1901849,136.875156 L121.809815,136.875156 L118.950674,128.437969 L81.0491693,128.437969 L78.1901849,136.875156 Z M100,60 C100.862836,60 101.562543,60.6996875 101.562543,61.5625 L101.562543,70.9373438 C101.562543,71.8001563 100.862836,72.4998438 100,72.4998438 C99.1370077,72.4998438 98.4374573,71.8001563 98.4374573,70.9373438 L98.4374573,61.5625 C98.4374573,60.6996875 99.1371639,60 100,60 Z M101.104561,75.919375 C101.395351,76.2115625 101.562543,76.6129688 101.562543,77.025625 C101.562543,77.4365625 101.395194,77.838125 101.104561,78.1303125 C100.814085,78.4207813 100.410949,78.5865625 100,78.5865625 C99.5890513,78.5865625 99.1859152,78.4207813 98.8952823,78.1303125 C98.6044931,77.838125 98.4374573,77.4365625 98.4374573,77.025625 C98.4374573,76.6129688 98.6046493,76.2115625 98.8952823,75.919375 C99.1859152,75.62875 99.5890513,75.463125 100,75.463125 C100.410949,75.463125 100.814085,75.62875 101.104561,75.919375 Z M74.9218143,101.821875 C75.7846504,101.821875 76.4845132,102.521563 76.4845132,103.384375 C76.4845132,104.247188 75.7848066,104.946875 74.9219705,104.946875 L67.7470868,104.946875 C66.8842507,104.946875 66.1845441,104.247188 66.1845441,103.384375 C66.1845441,102.521563 66.8842507,101.821875 67.7470868,101.821875 L74.9218143,101.821875 Z M62.6671042,102.279687 C62.9577371,102.570312 63.1250855,102.973438 63.1250855,103.384375 C63.1250855,103.795312 62.9577371,104.198438 62.6671042,104.488906 C62.3766275,104.779687 61.9734915,104.946875 61.5625427,104.946875 C61.151594,104.946875 60.748458,104.779531 60.457825,104.488906 C60.1670358,104.198437 60,103.795312 60,103.384375 C60,102.973438 60.1671921,102.570469 60.457825,102.279687 C60.748458,101.988906 61.151594,101.821875 61.5625427,101.821875 C61.9734915,101.821875 62.3766275,101.988906 62.6671042,102.279687 Z M89.4798686,73.904375 C89.8100339,74.7014063 89.431586,75.6154688 88.6342205,75.9459375 C88.4385901,76.026875 88.2360846,76.0653125 88.0368604,76.0653125 C87.4237186,76.0653125 86.841984,75.7020313 86.5926021,75.1003125 L84.4747317,69.9876563 C84.1445665,69.1904688 84.5230143,68.2764063 85.3203799,67.9460938 C86.1177454,67.6165625 87.0316766,67.9945313 87.3619982,68.7917188 L89.4798686,73.904375 Z M71.7150078,89.9773437 C72.5122171,90.3076562 72.8908212,91.2215625 72.560656,92.0189063 C72.3112741,92.620625 71.7295395,92.9839062 71.1163977,92.9839062 C70.9171735,92.9839062 70.714668,92.9453125 70.5190376,92.8645312 L65.4062416,90.7467187 C64.6090323,90.4164062 64.2304282,89.5025 64.5605935,88.7051563 C64.890915,87.908125 65.80469,87.5301563 66.6022118,87.8595313 L71.7150078,89.9773437 Z M132.904025,101.821875 C133.766861,101.821875 134.466567,102.521563 134.466567,103.384375 C134.466567,104.247188 133.766861,104.946875 132.904025,104.946875 L125.729141,104.946875 C124.866305,104.946875 124.166598,104.247188 124.166598,103.384375 C124.166598,102.521563 124.866305,101.821875 125.729141,101.821875 L132.904025,101.821875 Z M139.542019,102.279687 C139.832808,102.570312 140,102.973438 140,103.384375 C140,103.795312 139.832652,104.198438 139.542019,104.488906 C139.251542,104.779687 138.848406,104.946875 138.437457,104.946875 C138.026509,104.946875 137.623373,104.779531 137.33274,104.488906 C137.04195,104.198437 136.874915,103.795312 136.874915,103.384375 C136.874915,102.973438 137.042107,102.570469 137.33274,102.279687 C137.623373,101.988906 138.026509,101.821875 138.437457,101.821875 C138.848406,101.821875 139.251542,101.989062 139.542019,102.279687 Z M130.89897,72.4857813 C131.508987,73.0960937 131.508987,74.0854688 130.89897,74.695625 L123.210791,82.38375 C122.905626,82.68875 122.505928,82.8414063 122.105917,82.8414063 C121.706062,82.8414063 121.306208,82.6889063 121.000887,82.38375 C120.390714,81.7734375 120.390714,80.7840625 121.000887,80.1739063 L128.689066,72.4857813 C129.299551,71.8757813 130.288641,71.8757813 130.89897,72.4857813 Z M78.9988007,80.1739063 C79.6089737,80.7842188 79.6089737,81.7735938 78.9988007,82.3839063 C78.6936362,82.6889063 78.2937815,82.8415625 77.8939268,82.8415625 C77.4940721,82.8415625 77.0942174,82.6889063 76.7890528,82.3839063 L69.1007176,74.6959375 C68.4905447,74.085625 68.4905447,73.09625 69.1007176,72.4860938 C69.711203,71.8760938 70.7002926,71.8760938 71.3106218,72.4860938 L78.9988007,80.1739063 Z M114.679308,67.9460938 C115.476517,68.2764063 115.855121,69.1901563 115.524956,69.9876563 L113.407085,75.1003125 C113.157704,75.7020313 112.575969,76.0653125 111.962827,76.0653125 C111.763603,76.0653125 111.561097,76.026875 111.365467,75.9459375 C110.568258,75.6154688 110.189654,74.7015625 110.519819,73.904375 L112.637689,68.7917188 C112.968011,67.9946875 113.881942,67.6167188 114.679308,67.9460938 Z M135.43925,88.7051563 C135.769416,89.5023437 135.390968,90.4164062 134.593602,90.7467187 L129.480806,92.8645312 C129.285176,92.9454688 129.08267,92.9839063 128.883446,92.9839063 C128.270304,92.9839063 127.68857,92.620625 127.439188,92.0189063 C127.109023,91.2217188 127.48747,90.3076563 128.284836,89.9773438 L133.397632,87.8595313 C134.194998,87.5298437 135.108929,87.9078125 135.43925,88.7051563 Z M100,92.6575 C102.584758,92.6575 104.687472,94.7603125 104.687472,97.3448437 L104.687472,104.844687 C104.687472,107.429219 102.584602,109.532031 100,109.532031 C97.4153981,109.532031 95.3125281,107.429375 95.3125281,104.844687 L95.3125281,97.3448437 C95.3125281,94.7603125 97.4152418,92.6575 100,92.6575 Z M101.562543,104.844687 L101.562543,97.3448437 C101.562543,96.4832812 100.861586,95.7823437 100,95.7823437 C99.1384139,95.7823437 98.4374573,96.4832812 98.4374573,97.3448437 L98.4374573,104.844687 C98.4374573,105.70625 99.1384139,106.407187 100,106.407187 C100.861586,106.407187 101.562543,105.70625 101.562543,104.844687 Z M100,112.657031 C102.584758,112.657031 104.687472,114.759687 104.687472,117.344375 C104.687472,119.928906 102.584602,122.031719 100,122.031719 C97.4153981,122.031719 95.3125281,119.929063 95.3125281,117.344375 C95.3125281,114.759844 97.4152418,112.657031 100,112.657031 Z M100,118.906875 C100.861586,118.906875 101.562543,118.205938 101.562543,117.344375 C101.562543,116.482813 100.861586,115.781875 100,115.781875 C99.1384139,115.781875 98.4374573,116.482813 98.4374573,117.344375 C98.4374573,118.205938 99.1384139,118.906875 100,118.906875 Z" id="icon" fill="#1D6FDC"></path>
    </g>
</svg>