<?xml version="1.0" encoding="UTF-8"?>
<svg width="200px" height="200px" viewBox="0 0 200 200" version="1.1" xmlns="http://www.w3.org/2000/svg" xmlns:xlink="http://www.w3.org/1999/xlink">
    <!-- Generator: Sketch 53 (72520) - https://sketchapp.com -->
    <title>4</title>
    <desc>Created with Sketch.</desc>
    <g id="mainGroup" stroke="none" stroke-width="1" fill="none" fill-rule="evenodd">
        <path d="M85.3866048,132.432028 C103.763885,124.89084 115.882282,121.183605 119.853172,94.3547849 C123.824062,67.5259649 107.19642,54.8021507 85.3866048,47.2609627 C63.5767897,39.7197746 45.3866048,58.3508065 33.3866048,83.3649374 C21.3866048,108.379068 67.0093244,139.973216 85.3866048,132.432028 Z" id="idle" fill="#1D6FDC" opacity="0.100000001" transform="translate(75.922672, 89.566677) rotate(16.000000) translate(-75.922672, -89.566677) "></path>
        <path d="M106.610607,132.966043 C126.141369,136.965299 166.996498,129.047477 170.967388,102.218657 C174.938277,75.3898367 138.056989,53.1821206 116.247174,45.6409325 C94.437359,38.0997444 70.0209375,49.7574027 58.0209375,74.7715335 C46.0209375,99.7856644 87.0798445,128.966787 106.610607,132.966043 Z" id="hover" fill="#1D6FDC" opacity="0.100000001" transform="translate(75.922672, 89.566677) rotate(16.000000) translate(-75.922672, -89.566677) "></path>
        <path d="M116,133.729725 L116,133.664062 C116,130.669331 117.985429,128.129759 120.709175,127.292462 C120.253734,126.28786 120,125.173057 120,124 C120,119.587969 123.589368,116 127.999984,116 C129.838839,116 131.534946,116.623656 132.887705,117.670674 C133.226711,117.041108 133.547771,116.401971 133.847981,115.75875 C134.160011,115.092031 134.953291,114.801406 135.620009,115.114687 C136.286726,115.426719 136.575944,116.22 136.26407,116.886719 C135.811082,117.858349 135.313299,118.820163 134.779728,119.756974 C135.552624,120.987541 135.999969,122.442419 135.999969,124 C135.999969,125.173038 135.746243,126.287824 135.290815,127.292413 C138.014613,128.12964 140.000052,130.669161 139.999797,133.664062 L139.999797,139 C139.999797,139.735937 139.402454,140.333281 138.666518,140.333281 L117.333279,140.333281 C116.597343,140.333281 116,139.735937 116,139 L116,136.659515 C115.38547,136.928454 114.765417,137.181619 114.144113,137.417188 C113.989426,137.475938 113.830832,137.503906 113.673489,137.503906 C113.134896,137.503906 112.628178,137.174531 112.425523,136.6425 C112.164273,135.953281 112.512241,135.183906 113.200209,134.923906 C114.142497,134.567497 115.081383,134.166958 116,133.729725 Z M83.9999531,136.661222 L83.9999531,139 C83.9999531,139.735938 83.4026105,140.333281 82.6666745,140.333281 L61.3334349,140.333281 C60.5974988,140.333281 60.0001562,139.735938 60,139 L60,133.664062 C60,130.669331 61.9854295,128.129759 64.7091755,127.292462 C64.253734,126.28786 64,125.173057 64,124 C64,122.443255 64.4468642,120.989104 65.218996,119.758957 C64.6852876,118.82152 64.1878362,117.859035 63.7334302,116.886719 C63.4228058,116.22 63.710774,115.426719 64.3774915,115.114687 C65.0442089,114.801406 65.8374886,115.092031 66.1495192,115.75875 C66.4498681,116.402455 66.771195,117.042022 67.1105095,117.672032 C68.4635564,116.624195 70.1603345,116 71.9999844,116 C76.4106008,116 79.9999688,119.587969 79.9999688,124 C79.9999688,125.173037 79.746243,126.287823 79.2908156,127.292413 C82.0146175,128.129639 84.0000805,130.669161 83.9999531,133.664062 L83.9999531,133.729997 C84.9186781,134.166806 85.8565989,134.566616 86.7986977,134.924063 C87.4880713,135.184063 87.8347894,135.953281 87.5735399,136.642813 C87.372134,137.174844 86.8655725,137.504219 86.3268236,137.504219 C86.1694801,137.504219 86.0107304,137.476094 85.8547933,137.4175 C85.2338418,137.182672 84.6141406,136.929973 83.9999531,136.661222 Z M81.3333958,134.51378 L81.3333958,133.663906 C81.3333958,131.650625 79.836055,129.978594 77.8960588,129.705312 C76.378718,131.383906 74.2668471,132.333281 72.0001328,132.333281 C69.7348247,132.333281 67.6242039,131.385312 66.1068631,129.709219 C64.1521794,129.991875 62.6668698,131.657187 62.6668698,133.663906 L62.6668698,137.666562 L81.3333958,137.666562 L81.3333958,134.607758 C81.3322913,134.576515 81.332285,134.54517 81.3333958,134.51378 Z M106.666784,94.6667188 L118.662698,94.6667188 C120.135976,94.6667188 121.333318,95.8640625 121.333318,97.3359375 L121.333318,113.329375 C121.333318,114.802656 120.135976,116 118.663948,116 L117.333326,116 L117.333326,122.666719 C117.333326,123.205469 117.008014,123.692031 116.510671,123.89875 C116.345359,123.966875 116.172078,124.000156 116.000047,124.000156 C115.653329,124.000156 115.312079,123.864219 115.057392,123.609531 L107.448032,116.000156 L94.6707135,116.000156 C93.1974352,116.000156 92.0000937,114.802812 92.0000937,113.330781 L92.0000937,108.000313 L91.2188453,108.000313 L83.6094851,115.609688 C83.3547981,115.864375 83.0135488,116.000313 82.6668307,116.000313 C82.4947998,116.000313 82.3215189,115.966875 82.1574567,115.898906 C81.6587077,115.692188 81.3333958,115.205469 81.3333958,114.666875 L81.3333958,108.000156 L80.0027734,108.000156 C78.5307451,108.000156 77.3334036,106.802813 77.3334036,105.330781 L77.3334036,89.3360938 C77.3334036,87.8640625 78.5307451,86.6667188 80.0027734,86.6667188 L103.996008,86.6667188 C105.469442,86.6667188 106.666784,87.8640625 106.666784,89.3359375 L106.666784,94.6667188 Z M104.00007,94.6667188 L104.00007,89.3359375 L80.0027734,89.3332812 L80.0001172,105.330625 L82.6668307,105.333281 C83.4027668,105.333281 84.0001094,105.930625 84.0001094,106.666562 L84.0001094,111.447969 L89.7241607,105.724063 C89.9735352,105.473438 90.3135345,105.333438 90.6668151,105.333438 L92.0000937,105.333438 L92.0000937,97.3360938 C92.0000937,95.8640625 93.1974352,94.6667188 94.6694635,94.6667188 L104.00007,94.6667188 Z M94.6668073,106.667031 L94.6668073,113.329219 L108.000062,113.333281 C108.353343,113.333281 108.693342,113.473281 108.942717,113.723906 L114.666768,119.447969 L114.666768,114.666562 C114.666768,113.930625 115.264111,113.333281 116.000047,113.333281 L118.664104,113.333281 L118.66676,97.3359375 L102.051999,97.3340984 L94.6668073,97.3359375 L94.6668073,106.667031 Z M67.6934564,120.856768 C67.0480555,121.73874 66.6667135,122.825588 66.6667135,124 C66.6667135,126.94125 69.0585839,129.333281 71.9999844,129.333281 C74.9413849,129.333281 77.3332552,126.94125 77.3332552,124 C77.3332552,121.05875 74.9413849,118.666719 71.9999844,118.666719 C70.4019078,118.666719 68.9660415,119.372798 67.9878465,120.489421 C67.9136753,120.626054 67.8149368,120.750927 67.6934564,120.856768 Z M63.3396768,83.9998437 L61.3334349,83.9998437 C60.5974988,83.9998437 60.0001562,83.4025 60.0001562,82.6665625 L60.0001562,77.330625 C60.0001562,74.3822461 61.9246004,71.8751464 64.5833925,70.9991822 C64.2073618,70.072586 64.0001484,69.0600795 64.0001484,68 C64.0001484,63.5879688 67.5895164,60 72.0001328,60 C75.5673512,60 78.5973704,62.3469805 79.6257352,65.5787152 C80.2314702,65.2192454 80.8457532,64.8760204 81.4641768,64.551875 C82.1162068,64.210625 82.9227677,64.46125 83.2641733,65.1132812 C83.6054226,65.7653125 83.3547981,66.5720312 82.7015182,66.913125 C81.7811713,67.3955935 80.8696031,67.9228846 79.9855378,68.4858461 C79.9323476,69.3696748 79.7350294,70.2152192 79.4168441,70.9992537 C82.0756457,71.8751289 84.0000785,74.3822358 83.9999531,77.330625 L83.9999531,82.6665625 C83.9999531,83.4025 83.4026105,83.9998437 82.6666745,83.9998437 L66.2721544,83.9998437 C65.8355878,84.9177538 65.434965,85.8568361 65.0774901,86.8 C64.8748342,87.3320312 64.3681165,87.6614062 63.8295238,87.6614062 C63.6721803,87.6614062 63.5134306,87.6332812 63.3574934,87.5746875 C62.6681198,87.3134375 62.3214017,86.5440625 62.5828075,85.8546875 C62.8181826,85.2334081 63.0710778,84.6137082 63.3396768,83.9998437 Z M65.4637667,81.3332812 L81.3333958,81.3332812 L81.3333958,77.330625 C81.3333958,75.3256798 79.8484289,73.6591646 77.9201338,73.3754977 C76.4555454,74.986943 74.3437782,76 72.0001328,76 C69.6583618,76 67.5480982,74.9885628 66.0836471,73.3793629 C64.1404307,73.6717978 62.6668698,75.3318585 62.6668698,77.330625 L62.6668698,81.3332812 L65.4144325,81.3332812 C65.430855,81.3329759 65.4473015,81.3329749 65.4637646,81.3332812 Z M133.885899,84.3332812 L117.333279,84.3332812 C116.597343,84.3332812 116,83.7359375 116,83 L116,77.6640625 C116,74.6693312 117.985429,72.1297593 120.709175,71.2924622 C120.317144,70.4277288 120.074564,69.4813446 120.014615,68.48644 C119.130843,67.9241643 118.220085,67.396728 117.298794,66.9132812 C116.646764,66.571875 116.394734,65.7653125 116.736139,65.1132812 C117.078795,64.46125 117.884106,64.2104687 118.536136,64.551875 C119.154504,64.8760711 119.768733,65.2192622 120.374394,65.5786764 C121.402771,62.3469616 124.43278,60 127.999984,60 C132.410601,60 135.999969,63.5879688 135.999969,68 C135.999969,69.1730375 135.746243,70.2878236 135.290815,71.2924133 C138.014613,72.1296397 140.000052,74.6691611 139.999797,77.6640625 L139.999797,83 C139.999797,83.7359375 139.402454,84.3332812 138.666518,84.3332812 L136.80593,84.3332812 C137.021271,84.8377913 137.225827,85.345697 137.418599,85.8546875 C137.680005,86.5440625 137.333286,87.3132813 136.643913,87.5745313 C136.486569,87.6332813 136.327976,87.66125 136.170632,87.66125 C135.631884,87.66125 135.125322,87.331875 134.923916,86.7998438 C134.60963,85.9706299 134.261993,85.1445709 133.885899,84.3332812 Z M135.444584,81.6665625 L137.333396,81.6665625 L137.333396,77.6639062 C137.333396,75.650625 135.836055,73.9785937 133.896059,73.7053125 C132.378718,75.3839062 130.266847,76.3332812 128.000133,76.3332812 C125.734825,76.3332812 123.624204,75.3851562 122.106863,73.7092187 C120.152179,73.991875 118.66687,75.6571875 118.66687,77.6639062 L118.66687,81.6665625 L133.680768,81.6665625 C133.7647,81.5927907 133.859354,81.5284305 133.963918,81.4759375 C134.464217,81.2232305 135.047876,81.3173579 135.444584,81.6665625 Z M132.006408,120.482909 C131.02834,119.370054 129.594952,118.666719 127.999984,118.666719 C125.058584,118.666719 122.666714,121.05875 122.666714,124 C122.666714,126.94125 125.058584,129.333281 127.999984,129.333281 C130.941385,129.333281 133.333255,126.94125 133.333255,124 C133.333255,122.828134 132.953565,121.743452 132.310706,120.862506 C132.184287,120.753782 132.082198,120.624571 132.006408,120.482909 Z M77.3191526,67.6079635 C77.1178747,64.8491167 74.8096889,62.6667188 72.0001328,62.6667188 C69.0587323,62.6667188 66.666862,65.05875 66.666862,68 C66.666862,69.1281407 67.0187466,70.175482 67.6185564,71.0380378 C67.6706999,71.086507 67.7186697,71.1392369 67.7615473,71.1959375 C68.7868578,72.5546875 70.3321673,73.3332812 72.0001328,73.3332812 C73.6680983,73.3332812 75.2134078,72.5546875 76.2387183,71.1960938 C76.2836662,71.1366276 76.3331514,71.0815347 76.3864932,71.0311467 C76.9793666,70.175711 77.3286743,69.1392131 77.333356,68.0227391 C77.3067368,67.8850875 77.3023627,67.7450746 77.3191526,67.6079635 Z M122.666753,68.0206656 C122.677925,70.9524462 125.065476,73.3332812 127.999984,73.3332812 C130.941385,73.3332812 133.333255,70.94125 133.333255,68 C133.333255,65.05875 130.941385,62.6667188 127.999984,62.6667188 C125.189643,62.6667188 122.880952,64.8503374 122.680796,67.610278 C122.697135,67.7459574 122.692792,67.8844512 122.666753,68.0206656 Z M137.333396,137.666562 L137.333396,133.663906 C137.333396,131.650625 135.836055,129.978594 133.896059,129.705312 C132.378718,131.383906 130.266847,132.333281 128.000133,132.333281 C125.734825,132.333281 123.624204,131.385156 122.106863,129.709219 C120.152179,129.991875 118.66687,131.657187 118.66687,133.663906 L118.66687,137.666562 L137.333396,137.666562 Z M111.408025,61.6532813 C112.113336,61.8626563 112.515991,62.6053125 112.306617,63.311875 C112.132086,63.8892188 111.601305,64.2651563 111.028025,64.2651563 C110.902713,64.2651563 110.774745,64.2465625 110.648026,64.2092188 C108.358656,63.5292188 105.986785,63.0679688 103.600071,62.8385938 C102.866791,62.7679688 102.329449,62.1159375 102.400073,61.3839063 C102.469448,60.651875 103.124135,60.1185938 103.854758,60.1839063 C106.412097,60.4292188 108.953342,60.9239063 111.408025,61.6532813 Z M96.1614919,60.1826563 C96.8947717,60.1146875 97.5455517,60.6509375 97.6149265,61.3842188 C97.6843014,62.1175 97.1469587,62.768125 96.4149289,62.8375 C94.028371,63.0640625 91.6575944,63.5254688 89.3669739,64.2054688 C89.2388491,64.2428125 89.1108806,64.2614063 88.9855684,64.2614063 C88.410882,64.2614063 87.880258,63.8867188 87.7082271,63.3067188 C87.4988525,62.6014063 87.901508,61.85875 88.6068191,61.649375 C91.0629081,60.92 93.6041531,60.4267188 96.1614919,60.1826563 Z M139.81875,96.1853125 C139.938594,97.4453125 140,98.729375 140,100 C140,102.270625 139.807969,104.547969 139.428126,106.770469 C139.317501,107.419844 138.75344,107.878438 138.116097,107.878438 C138.04141,107.878438 137.965473,107.873125 137.890785,107.859844 C137.165474,107.735938 136.677506,107.046563 136.800162,106.32125 C137.153443,104.246563 137.333443,102.119844 137.333443,99.9998438 C137.333443,98.813125 137.277349,97.6145313 137.164068,96.4371875 C137.094849,95.7039063 137.632192,95.0532813 138.365472,94.9839063 C139.101408,94.92125 139.749375,95.4520313 139.81875,96.1853125 Z M63.1987438,106.312031 C63.322806,107.037344 62.8348382,107.726719 62.1081209,107.850625 C62.0334335,107.864062 61.9574962,107.869375 61.8828088,107.869375 C61.2442163,107.869375 60.6815612,107.410625 60.5695301,106.76 C60.1921871,104.541406 60.0001562,102.267969 60.0001562,100 C60.0001562,98.7226562 60.0615624,97.4373437 60.1814059,96.1759375 C60.2506245,95.4426562 60.907967,94.9132812 61.6346843,94.9759375 C62.3679641,95.0465625 62.9053068,95.6973437 62.834682,96.430625 C62.7240572,97.6067187 62.6667135,98.8079687 62.6667135,100 C62.6667135,102.117344 62.8454632,104.241406 63.1987438,106.312031 Z M106.666784,101.333281 C107.40272,101.333281 108.000062,101.930625 108.000062,102.666562 C108.000062,103.4025 107.40272,103.999844 106.666784,103.999844 L98.6667995,103.999844 C97.9308634,103.999844 97.3335208,103.4025 97.3335208,102.666562 C97.3335208,101.930625 97.9308634,101.333281 98.6667995,101.333281 L106.666784,101.333281 Z M114.666768,101.333281 C115.402704,101.333281 116.000047,101.930625 116.000047,102.666562 C116.000047,103.4025 115.402704,103.999844 114.666768,103.999844 L112.000055,103.999844 C111.264119,103.999844 110.666776,103.4025 110.666776,102.666562 C110.666776,101.930625 111.264119,101.333281 112.000055,101.333281 L114.666768,101.333281 Z M114.666768,106.666719 C115.402704,106.666719 116.000047,107.264062 116.000047,108 C116.000047,108.735938 115.402704,109.333281 114.666768,109.333281 L106.666784,109.333281 C105.930848,109.333281 105.333505,108.735938 105.333505,108 C105.333505,107.264062 105.930848,106.666719 106.666784,106.666719 L114.666768,106.666719 Z M101.333357,106.666719 C102.069449,106.666719 102.666635,107.264062 102.666635,108 C102.666635,108.735938 102.069293,109.333281 101.333357,109.333281 L98.6666432,109.333281 C97.9307072,109.333281 97.3333646,108.735938 97.3333646,108 C97.3333646,107.264062 97.9307072,106.666719 98.6666432,106.666719 L101.333357,106.666719 Z M105.95741,138.233281 C106.045379,138.964062 105.52413,139.627969 104.7921,139.715937 C103.214759,139.904063 101.601481,140 100.000078,140 C98.3947688,140 96.7760219,139.902656 95.1868063,139.712031 C94.4561827,139.624062 93.9347775,138.96 94.0214961,138.229375 C94.1094646,137.498594 94.7708696,136.977344 95.5041494,137.065312 C98.4680499,137.42125 101.522731,137.42125 104.474757,137.067969 C105.209443,136.98 105.869442,137.502656 105.95741,138.233281 Z" id="icon" fill="#1D6FDC"></path>
    </g>
</svg>