<?xml version="1.0" encoding="UTF-8"?>
<svg width="200px" height="200px" viewBox="0 0 200 200" version="1.1" xmlns="http://www.w3.org/2000/svg" xmlns:xlink="http://www.w3.org/1999/xlink">
    <!-- Generator: Sketch 53 (72520) - https://sketchapp.com -->
    <title>5</title>
    <desc>Created with Sketch.</desc>
    <g id="mainGroup" stroke="none" stroke-width="1" fill="none" fill-rule="evenodd">
        <path d="M84.1186816,136.320898 C104.758393,128.77971 118.368689,125.072475 122.828436,98.2436549 C127.288183,71.4148348 108.613508,58.6910207 84.1186816,51.1498326 C59.6238555,43.6086445 39.194273,62.2396765 25.7169504,87.2538073 C12.2396278,112.267938 63.4789703,143.862086 84.1186816,136.320898 Z" id="idle" fill="#1D6FDC" opacity="0.100000001" transform="translate(73.489643, 93.455547) rotate(-38.000000) translate(-73.489643, -93.455547) "></path>
        <path d="M79.2499932,133.031448 C99.8897045,125.49026 109.578542,116.388782 119.202596,92.1894019 C128.82665,67.9900215 128.832705,39.657349 104.337879,32.1161609 C79.8430528,24.5749729 43.3735241,11.4096455 29.8962015,36.4237763 C16.418879,61.4379072 58.6102819,140.572636 79.2499932,133.031448 Z" id="hover" fill="#1D6FDC" opacity="0.100000001" transform="translate(73.489643, 93.455547) rotate(-38.000000) translate(-73.489643, -93.455547) "></path>
        <path d="M67.7419355,125.258065 L70.3225806,125.258065 L70.3225806,127.83871 L67.7419355,127.83871 L67.7419355,125.258065 Z M72.9032258,125.258065 L75.483871,125.258065 L75.483871,127.83871 L72.9032258,127.83871 L72.9032258,125.258065 Z M78.0645161,125.258065 L80.6451613,125.258065 L80.6451613,127.83871 L78.0645161,127.83871 L78.0645161,125.258065 Z M121.935484,125.258065 L132.258065,125.258065 L132.258065,127.83871 L121.935484,127.83871 L121.935484,125.258065 Z M137.419355,120.096774 L140,120.096774 L140,126.548387 C140,130.105595 137.105595,133 133.548387,133 L66.4516129,133 C62.8944052,133 60,130.105595 60,126.548387 L60,120.096774 L62.5806452,120.096774 L62.5806452,77.516129 C62.5806452,73.9589213 65.4750503,71.0645161 69.0322581,71.0645161 L90.9677419,71.0645161 C90.9677419,61.1029485 99.0706905,53 109.032258,53 C118.993826,53 127.096774,61.1029485 127.096774,71.0645161 L130.967742,71.0645161 C134.52495,71.0645161 137.419355,73.9589213 137.419355,77.516129 L137.419355,120.096774 Z M130.967742,73.6451613 L126.890121,73.6451613 C126.764113,74.5265877 126.584551,75.3897429 126.335685,76.2258065 L129.677419,76.2258065 C131.10068,76.2258065 132.258065,77.3831905 132.258065,78.8064516 L132.258065,120.096774 L134.83871,120.096774 L134.83871,77.516129 C134.83871,75.3821824 133.101689,73.6451613 130.967742,73.6451613 Z M94.2981352,66.3228326 C93.8155242,67.8179184 93.5483871,69.4100303 93.5483871,71.0645161 C93.5483871,79.6028226 100.493952,86.5483871 109.032258,86.5483871 C110.291709,86.5483871 111.509577,86.3807965 112.682712,86.0953881 L107.993322,72.0297379 L94.2981352,66.3228326 Z M115.134199,85.2901966 C120.645161,82.9174647 124.516129,77.4361139 124.516129,71.0645161 C124.516129,67.2590726 123.13004,63.7755797 120.843624,61.0771169 L110.508443,71.4129284 L115.134199,85.2901966 Z M109.032258,55.5806452 C103.061996,55.5806452 97.8799144,58.9822329 95.298009,63.9444305 L108.731729,69.5404485 L119.020917,59.2518902 C116.321195,56.9667339 112.837702,55.5806452 109.032258,55.5806452 Z M65.1612903,77.516129 L65.1612903,120.096774 L67.7419355,120.096774 L67.7419355,78.8064516 C67.7419355,77.3831905 68.8993195,76.2258065 70.3225806,76.2258065 L91.7288306,76.2258065 C91.4787047,75.3897429 91.3004032,74.5265877 91.1743952,73.6451613 L69.0322581,73.6451613 C66.8983115,73.6451613 65.1612903,75.3821824 65.1612903,77.516129 Z M137.419355,126.548387 L137.419355,122.677419 L129.677419,122.677419 L129.677419,78.8064516 L125.328881,78.8064516 C122.421875,84.8995716 116.220388,89.1290323 109.032258,89.1290323 C101.844128,89.1290323 95.6426411,84.8995716 92.7356352,78.8064516 L70.3225806,78.8064516 L70.3225806,120.096774 L90.2116935,120.096774 L90.5884577,120.474798 C92.0091985,121.895539 93.8980595,122.677419 95.9072581,122.677419 L104.091482,122.677419 C106.10194,122.677419 107.989541,121.895539 109.410282,120.474798 L109.788306,120.096774 L127.096774,120.096774 L127.096774,122.677419 L110.837324,122.677419 C108.981855,124.345766 106.607863,125.258065 104.092742,125.258065 L95.9085181,125.258065 C93.3933971,125.258065 91.0194052,124.345766 89.1639365,122.677419 L62.5806452,122.677419 L62.5806452,126.548387 C62.5806452,128.682334 64.3176663,130.419355 66.4516129,130.419355 L133.548387,130.419355 C135.682334,130.419355 137.419355,128.682334 137.419355,126.548387 Z M123.225806,107.193548 C125.359753,107.193548 127.096774,108.93057 127.096774,111.064516 C127.096774,113.198463 125.359753,114.935484 123.225806,114.935484 C121.09186,114.935484 119.354839,113.198463 119.354839,111.064516 C119.354839,110.66318 119.433594,110.282636 119.548261,109.917213 L115.046623,106.542087 C114.432334,106.952243 113.695186,107.193548 112.903226,107.193548 C112.154738,107.193548 111.461694,106.970514 110.869456,106.60131 L103.642893,112.38319 C103.780872,112.780746 103.870968,113.200983 103.870968,113.645161 C103.870968,115.779108 102.133947,117.516129 100,117.516129 C97.8660534,117.516129 96.1290323,115.779108 96.1290323,113.645161 C96.1290323,113.3188 96.1819556,113.00504 96.2594506,112.701991 L90.6955645,108.992314 C90.0491432,109.477445 89.2552923,109.774194 88.3870968,109.774194 C87.5189013,109.774194 86.7250503,109.477445 86.078629,108.992314 L80.5147429,112.701991 C80.5922379,113.00504 80.6451613,113.31754 80.6451613,113.645161 C80.6451613,115.779108 78.9081402,117.516129 76.7741935,117.516129 C74.6402469,117.516129 72.9032258,115.779108 72.9032258,113.645161 C72.9032258,111.511215 74.6402469,109.774194 76.7741935,109.774194 C77.642389,109.774194 78.43624,110.070943 79.0826613,110.556074 L84.6465474,106.846396 C84.5690524,106.543347 84.516129,106.230847 84.516129,105.903226 C84.516129,103.769279 86.2531502,102.032258 88.3870968,102.032258 C90.5210434,102.032258 92.2580645,103.769279 92.2580645,105.903226 C92.2580645,106.230847 92.2051411,106.543347 92.1276461,106.846396 L97.6915323,110.556074 C98.3379535,110.072203 99.1318045,109.774194 100,109.774194 C100.748488,109.774194 101.441532,109.997228 102.03377,110.366431 L109.260333,104.584551 C109.122354,104.186996 109.032258,103.766759 109.032258,103.322581 C109.032258,101.188634 110.769279,99.4516129 112.903226,99.4516129 C115.037172,99.4516129 116.774194,101.188634 116.774194,103.322581 C116.774194,103.723916 116.695439,104.104461 116.580771,104.469884 L121.082409,107.84501 C121.696699,107.434854 122.433846,107.193548 123.225806,107.193548 Z M76.7741935,114.935484 C77.484879,114.935484 78.0645161,114.355847 78.0645161,113.645161 C78.0645161,112.934476 77.484879,112.354839 76.7741935,112.354839 C76.0635081,112.354839 75.483871,112.934476 75.483871,113.645161 C75.483871,114.355847 76.0635081,114.935484 76.7741935,114.935484 Z M88.3870968,107.193548 C89.0977823,107.193548 89.6774194,106.613911 89.6774194,105.903226 C89.6774194,105.19254 89.0977823,104.612903 88.3870968,104.612903 C87.6764113,104.612903 87.0967742,105.19254 87.0967742,105.903226 C87.0967742,106.613911 87.6764113,107.193548 88.3870968,107.193548 Z M100,114.935484 C100.710685,114.935484 101.290323,114.355847 101.290323,113.645161 C101.290323,112.934476 100.710685,112.354839 100,112.354839 C99.2893145,112.354839 98.7096774,112.934476 98.7096774,113.645161 C98.7096774,114.355847 99.2893145,114.935484 100,114.935484 Z M112.903226,104.612903 C113.613911,104.612903 114.193548,104.033266 114.193548,103.322581 C114.193548,102.611895 113.613911,102.032258 112.903226,102.032258 C112.19254,102.032258 111.612903,102.611895 111.612903,103.322581 C111.612903,104.033266 112.19254,104.612903 112.903226,104.612903 Z M123.225806,112.354839 C123.936492,112.354839 124.516129,111.775202 124.516129,111.064516 C124.516129,110.353831 123.936492,109.774194 123.225806,109.774194 C122.515121,109.774194 121.935484,110.353831 121.935484,111.064516 C121.935484,111.775202 122.515121,112.354839 123.225806,112.354839 Z M93.5483871,81.3870968 L93.5483871,99.4516129 L72.9032258,99.4516129 L72.9032258,81.3870968 L93.5483871,81.3870968 Z M90.9677419,96.8709677 L90.9677419,83.9677419 L75.483871,83.9677419 L75.483871,96.8709677 L90.9677419,96.8709677 Z M78.0645161,86.5483871 L88.3870968,86.5483871 L88.3870968,89.1290323 L78.0645161,89.1290323 L78.0645161,86.5483871 Z M78.0645161,91.7096774 L88.3870968,91.7096774 L88.3870968,94.2903226 L78.0645161,94.2903226 L78.0645161,91.7096774 Z M96.1290323,94.2903226 L98.7096774,94.2903226 L98.7096774,96.8709677 L96.1290323,96.8709677 L96.1290323,94.2903226 Z M101.290323,94.2903226 L127.096774,94.2903226 L127.096774,96.8709677 L101.290323,96.8709677 L101.290323,94.2903226 Z" id="icon" fill="#1D6FDC"></path>
    </g>
</svg>