<?xml version="1.0" encoding="UTF-8"?>
<svg width="200px" height="200px" viewBox="0 0 200 200" version="1.1" xmlns="http://www.w3.org/2000/svg" xmlns:xlink="http://www.w3.org/1999/xlink">
    <!-- Generator: Sketch 53 (72520) - https://sketchapp.com -->
    <title>6</title>
    <desc>Created with Sketch.</desc>
    <g id="mainGroup" stroke="none" stroke-width="1" fill="none" fill-rule="evenodd">
        <path d="M87.2680652,137.361713 C107.494982,129.392048 120.833072,125.474175 125.203624,97.1209903 C129.574176,68.7678055 111.272995,55.3210473 87.2680652,47.3513827 C63.2631356,39.381718 43.2421447,59.0713313 30.0343686,85.5067196 C16.8265925,111.942108 67.0411481,145.331378 87.2680652,137.361713 Z" id="idle" fill="#FFFFFF" opacity="0.100000001" transform="translate(76.851607, 92.060831) rotate(-65.000000) translate(-76.851607, -92.060831) "></path>
        <path d="M98.5108509,144.608662 C118.272794,155.272622 141.242279,147.553208 153.376271,137.869123 C165.510263,128.185038 166.868773,75.1432572 144.986847,61.0869568 C123.10492,47.0306564 77.7663688,41.3939495 64.5585927,67.8293378 C51.3508165,94.264726 78.7489082,133.944702 98.5108509,144.608662 Z" id="hover" fill="#FFFFFF" opacity="0.100000001" transform="translate(76.851607, 92.060831) rotate(-65.000000) translate(-76.851607, -92.060831) "></path>
        <path d="M101.978459,100.023555 C102.587837,100.63293 102.587837,101.621991 101.978459,102.232927 C101.367518,102.842301 100.37845,102.842301 99.7675091,102.232927 C99.1581307,101.621991 99.1581307,100.63293 99.7675091,100.023555 C100.37845,99.4126187 101.367518,99.4126187 101.978459,100.023555 Z M121.864665,80.1359272 C124.918119,83.1892041 124.917494,88.1318534 121.864665,91.1846616 C118.81871,94.2305948 113.862432,94.2293448 110.816165,91.1849741 C107.770367,88.1373221 107.770523,83.1810791 110.815696,80.1359272 C113.868995,77.0828065 118.811523,77.0829628 121.864665,80.1359272 Z M119.654965,88.974821 C121.487006,87.1429486 121.486694,84.1771715 119.654965,82.3456116 C117.822923,80.5135829 114.857282,80.5138954 113.025553,82.3456116 C111.198355,84.1726402 111.198511,87.1466985 113.025865,88.9751335 C114.853844,90.8020059 117.827923,90.8020059 119.654965,88.974821 Z M139.542421,62.4576709 C139.849141,62.7645455 140.014611,63.1850136 139.998986,63.6186068 C139.986329,63.9717313 139.648359,72.3835944 136.113964,82.3832678 C133.284885,90.3951315 129.23455,97.0737158 124.075146,102.233083 C122.918577,103.389644 121.692476,104.514643 120.4195,105.590579 C123.42233,110.691978 122.480762,114.779785 121.097785,117.363687 C117.913393,123.313835 109.26725,126.996799 103.08284,126.996799 C102.450805,126.996799 101.881115,126.616174 101.639395,126.032269 C101.397518,125.448519 101.531269,124.776489 101.97799,124.329615 C105.11582,121.191963 104.919569,117.3215 104.753475,116.05697 L104.206284,115.509783 C101.643457,116.586813 99.0956303,117.453999 96.6184289,118.090092 C95.7677991,118.308061 94.8218563,118.26353 93.9027886,117.902124 C93.2095034,119.406184 92.1916852,120.857432 90.9283968,122.120712 C86.9063429,126.142737 77.1037877,126.959455 76.6884729,126.992111 C76.6473789,126.995392 76.6062849,126.996955 76.5653472,126.996955 C76.1528449,126.996955 75.7548739,126.833361 75.4606535,126.539299 C75.1373704,126.216018 74.972057,125.767269 75.0079947,125.311488 C75.0408074,124.896176 75.8575307,115.094003 79.8795846,111.071821 C81.1433417,109.808073 82.5947561,108.790105 84.0991396,108.096825 C83.7577314,107.228701 83.680231,106.27964 83.9099198,105.382767 C84.5461734,102.904489 85.4136783,100.356367 86.4905593,97.793871 L85.9433688,97.2466843 C84.6789866,97.0804345 80.8084961,96.8841848 77.6705097,100.022149 C77.3716017,100.320899 76.9720682,100.479805 76.5653472,100.479805 C76.3640961,100.479805 76.1609699,100.440899 75.9676876,100.360742 C75.3839343,100.119024 75.0031509,99.549181 75.0026821,98.9173069 C75.0026821,92.7329407 78.6856716,84.0867029 84.6358614,80.9023324 C87.2200947,79.5193656 91.3079302,78.5778044 96.4092089,81.5806127 C97.4856213,80.3070207 98.6106276,79.0810849 99.7667279,77.9249928 C104.925976,72.7656251 111.604607,68.7151621 119.617152,65.8861036 C129.616427,62.3518898 138.028193,62.0137653 138.381477,62.0011091 C138.816792,61.9847028 139.235544,62.1509526 139.542421,62.4576709 Z M78.4961393,95.5565304 C82.6906942,93.3273148 86.8249362,94.2165323 87.0397812,94.265126 C87.5622841,94.3829383 87.8435357,94.7365316 87.8668171,94.7509066 C89.7007337,90.9641932 91.9009023,87.3782607 94.4316978,84.0498279 C91.4610561,82.4237365 88.6671341,82.2896742 86.1110259,83.6574847 C82.2860044,85.7046693 79.4667698,90.8591933 78.4961393,95.5565304 Z M88.7186969,119.910871 C89.9219849,118.707748 90.8340213,117.31275 91.3477742,115.910564 L86.0896196,110.652447 C84.6874242,111.166196 83.2924163,112.078382 82.0892846,113.281505 C79.9409912,115.429784 78.8077036,120.469464 78.3448885,123.655084 C81.5303752,123.192429 86.5702473,122.059305 88.7186969,119.910871 Z M95.8421745,115.062909 C97.7904667,114.562754 99.789853,113.90838 101.809083,113.112287 L88.8879166,100.191211 C88.0919746,102.210115 87.4374397,104.209799 86.9369681,106.158859 C86.8214987,106.610265 86.9914997,107.133858 87.3811894,107.524326 C89.8457345,109.98901 90.961522,111.10479 91.4165246,111.559789 C91.664651,111.807757 92.4554367,112.598538 94.4768543,114.619941 C94.8662315,115.00869 95.3899845,115.17869 95.8421745,115.062909 Z M118.342926,115.889158 C119.71059,113.333537 119.576683,110.539322 117.95058,107.568388 C114.621812,110.099166 111.03601,112.299319 107.249582,114.133223 C107.26802,114.163067 107.597709,114.417129 107.724741,114.922441 C108.271932,117.097906 107.941774,120.685557 106.444109,123.503835 C111.141323,122.533367 116.295727,119.713996 118.342926,115.889158 Z M121.865759,100.023399 C126.49516,95.3941869 130.179243,89.4201328 132.83082,82.2621742 L119.738247,69.1696927 C112.580081,71.8215639 106.605985,75.5056212 101.977053,80.1346772 C100.569701,81.5418627 99.2096935,83.0581106 97.9340613,84.6413896 C94.8718565,88.444353 92.2777794,92.6305971 90.2127678,97.0971532 L104.903476,111.787445 C109.369751,109.722448 113.556024,107.128389 117.359483,104.065893 C118.94168,102.791364 120.457782,101.43121 121.865759,100.023399 Z M133.955045,78.9667101 C135.803025,73.0171873 136.495216,67.8407883 136.744124,65.2565732 C134.160359,65.5053229 128.983924,66.1973531 123.033734,68.0454755 L133.955045,78.9667101 Z M97.5579654,126.53883 C98.1681251,127.14883 98.1682813,128.138203 97.5582779,128.748515 L93.139503,133.168821 C92.5294996,133.779133 91.540119,133.779133 90.9296468,133.169134 C90.3194871,132.559134 90.3193309,131.569761 90.9293343,130.959449 L95.3481092,126.539143 C95.9581127,125.928988 96.9474932,125.928675 97.5579654,126.53883 Z M75.4614347,104.442299 C76.0714382,105.052611 76.0712819,106.041984 75.460966,106.651983 L71.0406286,111.070727 C70.4300001,111.681039 69.4407758,111.680414 68.8309286,111.070415 C68.2209252,110.460103 68.2210815,109.47073 68.8313974,108.86073 L73.2517348,104.441987 C73.862207,103.831987 74.8514313,103.831987 75.4614347,104.442299 Z M86.5097782,128.749921 C87.1199379,129.360076 87.1199379,130.34945 86.5096219,130.959605 L75.9251873,141.542403 C75.3148714,142.152715 74.3253346,142.152402 73.7154874,141.542247 C73.1053277,140.932091 73.1053277,139.942718 73.7156436,139.332562 L84.3000783,128.749765 C84.9103942,128.139766 85.899931,128.139766 86.5097782,128.749921 Z M74.0097078,128.749921 C74.6198675,129.360076 74.6198675,130.34945 74.0095516,130.959605 L63.4251169,141.542403 C62.814801,142.152715 61.8252642,142.152402 61.215417,141.542247 C60.6052573,140.932091 60.6052573,139.942718 61.2155733,139.332562 L71.8000079,128.749765 C72.4101675,128.139766 73.3997044,128.139766 74.0097078,128.749921 Z M73.2501723,115.490252 C73.8604882,116.100564 73.8604882,117.089781 73.2503285,117.700093 L62.6674564,128.284453 C62.0572967,128.894765 61.0679162,128.894765 60.4577565,128.284609 C59.8474405,127.674298 59.8474405,126.68508 60.4576002,126.074769 L71.0404723,115.490409 C71.650632,114.880253 72.6401688,114.880253 73.2501723,115.490252 Z M108.606778,93.3935647 C109.216937,94.0038764 109.216937,94.99325 108.606778,95.6034054 L106.39739,97.8127772 C105.787074,98.4229326 104.79785,98.4229326 104.187534,97.8127772 C103.577374,97.2024656 103.577374,96.213092 104.187534,95.6029366 L106.396921,93.3935647 C107.007394,92.7834093 107.996462,92.7834093 108.606778,93.3935647 Z" id="icon" fill="#FFFFFF"></path>
    </g>
</svg>