<?xml version="1.0" encoding="UTF-8"?>
<svg width="14px" height="14px" viewBox="0 0 14 14" version="1.1" xmlns="http://www.w3.org/2000/svg" xmlns:xlink="http://www.w3.org/1999/xlink">
    <!-- Generator: Sketch 53 (72520) - https://sketchapp.com -->
    <title>verified</title>
    <desc>Created with Sketch.</desc>
    <g id="Design" stroke="none" stroke-width="1" fill="none" fill-rule="evenodd">
        <g id="1.1---Dashboard---Hovers" transform="translate(-184.000000, -485.000000)" fill="#35C635">
            <g id="1---Critical-Reviews" transform="translate(0.000000, 363.000000)">
                <g id="2---Products" transform="translate(30.000000, 93.000000)">
                    <g id="Items-v1">
                        <g id="1">
                            <g id="Review" transform="translate(154.000000, 27.000000)">
                                <g id="title">
                                    <path d="M13.8316463,9.81683664 C14.1413529,10.2345534 14.0098737,10.8267958 13.5511573,11.0728481 L13.153798,11.2902898 C12.8236391,11.4676764 12.6483335,11.8338938 12.7155339,12.1972502 L12.7973432,12.6349946 C12.8937613,13.1414047 12.5139325,13.619204 11.9850939,13.6478148 L11.5292994,13.6735644 C11.1523923,13.696453 10.8309987,13.9510886 10.7316589,14.3058618 L10.6118667,14.7350229 C10.4716222,15.2357109 9.91648779,15.5017907 9.42855386,15.3043766 L9.00782041,15.1355733 C8.66013097,14.9953806 8.25984984,15.0897961 8.01150023,15.3673203 L7.7134807,15.704927 C7.36579125,16.0940331 6.74929988,16.0997552 6.39576691,15.7135102 L6.09190386,15.3816256 C5.83771074,15.1069625 5.43742961,15.0211303 5.08974016,15.1670451 L4.67192847,15.3444317 C4.18399454,15.550429 3.62593837,15.2929323 3.47985036,14.7951055 L3.35421468,14.3659443 C3.24903132,14.0111712 2.92471595,13.7593967 2.5478089,13.7450913 L2.09201433,13.7250638 C1.56317576,13.7050362 1.17458167,13.232959 1.26223447,12.7236879 L1.34112199,12.2859435 C1.40247895,11.9225871 1.22132983,11.5592307 0.888249182,11.3847052 L0.487968052,11.1729857 C0.0204864412,10.9269334 -0.119758042,10.3404132 0.184105005,9.91697423 L0.447063411,9.55361783 C0.663273656,9.25034398 0.660351896,8.84693254 0.438298131,8.54938084 L0.169496205,8.18888551 C-0.143132123,7.7711687 -0.0087311595,7.18178745 0.452906931,6.93001294 L0.850266301,6.71257131 C1.18042519,6.53518472 1.35573079,6.16896724 1.28853031,5.80561084 L1.20672103,5.36786651 C1.11030295,4.86145641 1.49013176,4.38365705 2.01897033,4.35504631 L2.4747649,4.32929664 C2.85167195,4.30926912 3.1701438,4.05463353 3.26656188,3.69413821 L3.38635404,3.2649771 C3.52659852,2.76428914 4.08173294,2.49820926 4.56966687,2.69562337 L4.99040032,2.86442674 C5.33808977,3.00461936 5.7383709,2.91020392 5.9867205,2.63267974 L6.28474003,2.295073 C6.63242948,1.90596693 7.24892085,1.90024479 7.60245382,2.28648978 L7.90631687,2.61837437 C8.16050999,2.89589855 8.56079112,2.98173077 8.90848057,2.835816 L9.32629226,2.65842941 C9.81422619,2.45243207 10.3722824,2.70992874 10.5183704,3.20775562 L10.6440061,3.63691672 C10.7491894,3.9916899 11.0735048,4.24346442 11.4504118,4.25776979 L11.9062064,4.27779731 C12.435045,4.29782483 12.8236391,4.76990204 12.7359863,5.27917322 L12.6600205,5.71977862 C12.5986635,6.08313502 12.7798127,6.44649143 13.1128933,6.62101694 L13.5131744,6.83273642 C13.9806561,7.07878879 14.1209005,7.66530896 13.8170375,8.08874792 L13.5540791,8.45210432 C13.3378688,8.75537817 13.3407906,9.15878961 13.5628444,9.45634131 L13.8316463,9.81683664 Z M6.11556357,9.18668508 L5.50199395,8.58156792 C5.13823482,8.22107259 4.54219577,8.22107259 4.174054,8.57727631 C3.80591223,8.93348003 3.80591223,9.51713913 4.16967136,9.87763446 L4.78324098,10.4827516 L5.46693283,11.1522429 C5.82192668,11.504155 6.40043517,11.504155 6.75981166,11.1565346 L7.44350352,10.4913348 L9.82765974,8.16957326 C10.1958015,7.81336954 10.1958015,7.22971044 9.83204238,6.86921511 C9.46828325,6.50871979 8.87224419,6.50871979 8.50410242,6.8649235 L6.11556357,9.18668508 Z" id="verified"></path>
                                </g>
                            </g>
                        </g>
                    </g>
                </g>
            </g>
        </g>
    </g>
</svg>