<?xml version="1.0" encoding="UTF-8"?>
<svg width="1439px" height="386px" viewBox="0 0 1439 386" version="1.1" xmlns="http://www.w3.org/2000/svg" xmlns:xlink="http://www.w3.org/1999/xlink">
    <!-- Generator: Sketch 53 (72520) - https://sketchapp.com -->
    <title>Combined Shape</title>
    <desc>Created with Sketch.</desc>
    <defs>
        <radialGradient cx="50%" cy="50%" fx="50%" fy="50%" r="105.797679%" gradientTransform="translate(0.500000,0.500000),scale(0.268669,1.000000),rotate(180.000000),scale(1.000000,0.268091),translate(-0.500000,-0.500000)" id="radialGradient-1">
            <stop stop-color="#FFFFFF" offset="0%"></stop>
            <stop stop-color="#FFFFFF" stop-opacity="0" offset="100%"></stop>
        </radialGradient>
    </defs>
    <g id="LP" stroke="none" stroke-width="1" fill="none" fill-rule="evenodd">
        <g id="0.0---LP-Desk-v2" transform="translate(0.000000, -5722.000000)" fill="url(#radialGradient-1)">
            <g id="CTA" transform="translate(0.000000, 5700.000000)">
                <path d="M118.530443,114.209991 C174.163225,114.209991 219.26363,159.335619 219.26363,214.999513 C219.26363,215.06935 219.261841,215.137397 219.261841,215.207234 L219.26363,215.207234 L219.26363,309.580679 C219.26363,315.101406 212.593423,317.866246 208.69188,313.962521 L186.3636,289.510519 C168.463035,305.834536 144.660043,315.789034 118.530443,315.789034 L-119.266813,315.789034 C-174.901384,315.789034 -220,270.665198 -220,214.999513 C-220,159.335619 -174.901384,114.209991 -119.266813,114.209991 L118.530443,114.209991 Z M1558.53223,114.209991 C1614.16501,114.209991 1659.26542,159.335619 1659.26542,214.999513 C1659.26542,215.06935 1659.26363,215.137397 1659.26363,215.207234 L1659.26542,215.207234 L1659.26542,309.580679 C1659.26542,315.101406 1652.59521,317.866246 1648.69367,313.962521 L1626.36539,289.510519 C1608.46482,305.834536 1584.66004,315.789034 1558.53223,315.789034 L1320.73498,315.789034 C1265.10041,315.789034 1220,270.665198 1220,214.999513 C1220,159.335619 1265.10041,114.209991 1320.73498,114.209991 L1558.53223,114.209991 Z M214.840303,-125 L452.637559,-125 C508.27213,-125 553.370746,-79.8743724 553.370746,-24.2104782 C553.370746,31.4552066 508.27213,76.5790435 452.637559,76.5790435 L214.840303,76.5790435 C188.710703,76.5790435 164.907711,66.624545 147.007145,50.3005282 L124.678865,74.75253 C120.777322,78.6562549 114.107116,75.8914149 114.107116,70.3706883 L114.107116,-24.0027571 L114.108905,-24.0027571 C114.108905,-24.0725944 114.107116,-24.140641 114.107116,-24.2104782 C114.107116,-79.8743724 159.207521,-125 214.840303,-125 Z M-262.266813,-125 L-24.4695568,-125 C31.1650146,-125 76.2636302,-79.8743724 76.2636302,-24.2104782 C76.2636302,31.4552066 31.1650146,76.5790435 -24.4695568,76.5790435 L-262.266813,76.5790435 C-288.396413,76.5790435 -312.199405,66.624545 -330.09997,50.3005282 L-352.42825,74.75253 C-356.329793,78.6562549 -363,75.8914149 -363,70.3706883 L-363,-24.0027571 L-362.99821,-24.0027571 C-362.99821,-24.0725944 -363,-24.140641 -363,-24.2104782 C-363,-79.8743724 -317.899595,-125 -262.266813,-125 Z M1068.32135,-24.2104782 C1068.32135,-79.8743724 1113.42175,-125 1169.05453,-125 L1406.85179,-125 C1462.48636,-125 1507.58677,-79.8743724 1507.58677,-24.2104782 C1507.58677,31.4552066 1462.48636,76.5790435 1406.85179,76.5790435 L1169.05453,76.5790435 C1142.92672,76.5790435 1119.12194,66.624545 1101.22138,50.3005282 L1078.8931,74.75253 C1074.99155,78.6562549 1068.32135,75.8914149 1068.32135,70.3706883 L1068.32135,-24.0045478 L1068.32314,-24.0045478 C1068.32314,-24.0725944 1068.32135,-24.140641 1068.32135,-24.2104782 Z M1545.73458,-24.2104782 C1545.73458,-79.8743724 1590.83499,-125 1646.46777,-125 L1884.26502,-125 C1939.89959,-125 1985,-79.8743724 1985,-24.2104782 C1985,31.4552066 1939.89959,76.5790435 1884.26502,76.5790435 L1646.46777,76.5790435 C1620.33996,76.5790435 1596.53518,66.624545 1578.63461,50.3005282 L1556.30633,74.75253 C1552.40479,78.6562549 1545.73458,75.8914149 1545.73458,70.3706883 L1545.73458,-24.0045478 L1545.73637,-24.0045478 C1545.73637,-24.0725944 1545.73458,-24.140641 1545.73458,-24.2104782 Z M929.698192,76.5799389 L691.900936,76.5799389 C665.771336,76.5799389 641.968344,66.6254403 624.065989,50.3014236 L601.737709,74.7534254 C597.837956,78.6553596 591.167749,75.8923102 591.167749,70.3715837 L591.167749,-24.0036525 L591.169539,-24.0036525 C591.169539,-24.071699 591.167749,-24.1415363 591.167749,-24.2095829 C591.167749,-79.8752678 636.266365,-124.999105 691.900936,-124.999105 L929.698192,-124.999105 C985.332764,-124.999105 1030.43138,-79.8752678 1030.43138,-24.2095829 C1030.43138,31.4543113 985.332764,76.5799389 929.698192,76.5799389 Z M1224.1597,353.419982 L986.362441,353.419982 C930.72787,353.419982 885.629254,398.545609 885.629254,454.209504 C885.629254,509.875189 930.72787,554.999025 986.362441,554.999025 L1224.1597,554.999025 C1250.2893,554.999025 1274.09229,545.044527 1291.99285,528.72051 L1314.32113,553.172512 C1318.22268,557.076237 1324.89288,554.311397 1324.89288,548.79067 L1324.89288,454.417225 L1324.89109,454.417225 C1324.89109,454.347388 1324.89288,454.279341 1324.89288,454.209504 C1324.89288,398.545609 1279.79248,353.419982 1224.1597,353.419982 Z M1701.26681,353.419982 L1463.46956,353.419982 C1407.83499,353.419982 1362.73637,398.545609 1362.73637,454.209504 C1362.73637,509.875189 1407.83499,554.999025 1463.46956,554.999025 L1701.26681,554.999025 C1727.39641,554.999025 1751.1994,545.044527 1769.09997,528.72051 L1791.42825,553.172512 C1795.32979,557.076237 1802,554.311397 1802,548.79067 L1802,454.417225 L1801.99821,454.417225 C1801.99821,454.347388 1802,454.279341 1802,454.209504 C1802,398.545609 1756.89959,353.419982 1701.26681,353.419982 Z M370.678653,454.209504 C370.678653,398.545609 325.578248,353.419982 269.945466,353.419982 L32.14821,353.419982 C-23.4863615,353.419982 -68.5867668,398.545609 -68.5867668,454.209504 C-68.5867668,509.875189 -23.4863615,554.999025 32.14821,554.999025 L269.945466,554.999025 C296.073276,554.999025 319.878058,545.044527 337.778623,528.72051 L360.106903,553.172512 C364.008446,557.076237 370.678653,554.311397 370.678653,548.79067 L370.678653,454.415434 L370.676863,454.415434 C370.676863,454.347388 370.678653,454.279341 370.678653,454.209504 Z M-106.73458,454.209504 C-106.73458,398.545609 -151.834985,353.419982 -207.467767,353.419982 L-445.265023,353.419982 C-500.899595,353.419982 -546,398.545609 -546,454.209504 C-546,509.875189 -500.899595,554.999025 -445.265023,554.999025 L-207.467767,554.999025 C-181.339957,554.999025 -157.535176,545.044527 -139.63461,528.72051 L-117.30633,553.172512 C-113.404787,557.076237 -106.73458,554.311397 -106.73458,548.79067 L-106.73458,454.415434 L-106.73637,454.415434 C-106.73637,454.347388 -106.73458,454.279341 -106.73458,454.209504 Z M509.301808,554.999921 L747.099064,554.999921 C773.228664,554.999921 797.031656,545.045422 814.934011,528.721406 L837.262291,553.173407 C841.162044,557.075341 847.832251,554.312292 847.832251,548.791566 L847.832251,454.416329 L847.830461,454.416329 C847.830461,454.348283 847.832251,454.278446 847.832251,454.210399 C847.832251,398.544714 802.733635,353.420877 747.099064,353.420877 L509.301808,353.420877 C453.667236,353.420877 408.568621,398.544714 408.568621,454.210399 C408.568621,509.874293 453.667236,554.999921 509.301808,554.999921 Z" id="Combined-Shape"></path>
            </g>
        </g>
    </g>
</svg>