<?xml version="1.0" encoding="UTF-8"?>
<svg width="366px" height="310px" viewBox="0 0 366 310" version="1.1" xmlns="http://www.w3.org/2000/svg" xmlns:xlink="http://www.w3.org/1999/xlink">
    <!-- Generator: Sketch 53 (72520) - https://sketchapp.com -->
    <title>Combined Shape</title>
    <desc>Created with Sketch.</desc>
    <defs>
        <radialGradient cx="50%" cy="50%" fx="50%" fy="50%" r="38.2864837%" gradientTransform="translate(0.500000,0.500000),scale(0.503158,1.000000),rotate(180.000000),scale(1.000000,0.853887),translate(-0.500000,-0.500000)" id="radialGradient-1">
            <stop stop-color="#FFFFFF" offset="0%"></stop>
            <stop stop-color="#FFFFFF" stop-opacity="0" offset="100%"></stop>
            <stop stop-color="#FFFFFF" stop-opacity="0" offset="100%"></stop>
        </radialGradient>
    </defs>
    <g id="LP" stroke="none" stroke-width="1" fill="none" fill-rule="evenodd">
        <g id="LP-Mob-v2" transform="translate(-1.000000, -5181.000000)" fill="url(#radialGradient-1)">
            <g id="CTA" transform="translate(0.000000, 5181.000000)">
                <path d="M-52.8607603,83 C-13.7258801,83 18,114.788083 18,153.999692 C18,154.048888 17.998741,154.096822 17.998741,154.146018 L18,154.146018 L18,220.626 C18,224.514994 13.3078431,226.462645 10.5633026,223.712723 L-5.14352591,206.487871 C-17.7356788,217.987084 -34.4798933,224.999384 -52.8607603,224.999384 L-220.13924,224.999384 C-259.275379,224.999384 -291,193.212563 -291,153.999692 C-291,114.788083 -259.275379,83 -220.13924,83 L-52.8607603,83 Z M588.139528,83 C627.274249,83 659,114.788083 659,153.999692 C659,154.048888 658.998741,154.096822 658.998741,154.146018 L659,154.146018 L659,220.626 C659,224.514994 654.307862,226.462645 651.563333,223.712723 L635.856568,206.487871 C623.264467,217.987084 606.519062,224.999384 588.139528,224.999384 L420.861731,224.999384 C381.725751,224.999384 350,193.212563 350,153.999692 C350,114.788083 381.725751,83 420.861731,83 L588.139528,83 Z M-167.198458,-84 L0.211620392,-84 C39.3785482,-84 71.1281273,-52.211933 71.1281273,-13.0003433 C71.1281273,26.2125079 39.3785482,57.9993135 0.211620392,57.9993135 L-167.198458,57.9993135 C-185.593785,57.9993135 -202.351173,50.9870173 -214.953232,39.4878102 L-230.672417,56.7126536 C-233.419117,59.4625737 -238.114965,57.5149239 -238.114965,53.6259314 L-238.114965,-12.8540172 L-238.113705,-12.8540172 C-238.113705,-12.9032131 -238.114965,-12.9511474 -238.114965,-13.0003433 C-238.114965,-52.211933 -206.364126,-84 -167.198458,-84 Z M336.063932,57.9999442 L168.653853,57.9999442 C150.258526,57.9999442 133.501139,50.987648 120.897819,39.4884409 L105.178634,56.7132843 C102.433195,59.461943 97.7373463,57.5155546 97.7373463,53.6265621 L97.7373463,-12.854648 L97.7386062,-12.854648 C97.7386062,-12.9025823 97.7373463,-12.9517782 97.7373463,-12.9997125 C97.7373463,-52.2125637 129.486925,-83.9993693 168.653853,-83.9993693 L336.063932,-83.9993693 C375.23086,-83.9993693 406.980439,-52.2125637 406.980439,-12.9997125 C406.980439,26.2118772 375.23086,57.9999442 336.063932,57.9999442 Z M542.198458,252 L374.78838,252 C335.621452,252 303.871873,283.788067 303.871873,322.999657 C303.871873,362.212508 335.621452,393.999313 374.78838,393.999313 L542.198458,393.999313 C560.593785,393.999313 577.351173,386.987017 589.953232,375.48781 L605.672417,392.712654 C608.419117,395.462574 613.114965,393.514924 613.114965,389.625931 L613.114965,323.145983 L613.113705,323.145983 C613.113705,323.096787 613.114965,323.048853 613.114965,322.999657 C613.114965,283.788067 581.364126,252 542.198458,252 Z M38.9360683,393.999944 L206.346147,393.999944 C224.741474,393.999944 241.498861,386.987648 254.102181,375.488441 L269.821366,392.713284 C272.566805,395.461943 277.262654,393.515555 277.262654,389.626562 L277.262654,323.145352 L277.261394,323.145352 C277.261394,323.097418 277.262654,323.048222 277.262654,323.000287 C277.262654,283.787436 245.513075,252.000631 206.346147,252.000631 L38.9360683,252.000631 C-0.230859541,252.000631 -31.9804386,283.787436 -31.9804386,323.000287 C-31.9804386,362.211877 -0.230859541,393.999944 38.9360683,393.999944 Z" id="Combined-Shape"></path>
            </g>
        </g>
    </g>
</svg>